<svg width="283" height="308" viewBox="0 0 283 308" fill="none" xmlns="http://www.w3.org/2000/svg">
<rect x="2.5" y="2.5" width="278" height="303" rx="15.5" fill="white" stroke="#0C549F" stroke-width="5"/>
<path d="M24 61H266" stroke="#0C549F" stroke-width="5" stroke-linecap="round" stroke-linejoin="round"/>
<path d="M24 89H266" stroke="#0C549F" stroke-width="5" stroke-linecap="round" stroke-linejoin="round"/>
<path d="M24 117H266" stroke="#0C549F" stroke-width="5" stroke-linecap="round" stroke-linejoin="round"/>
<path d="M24 134L163.5 134" stroke="#0C549F" stroke-width="5" stroke-linecap="round" stroke-linejoin="round"/>
<path d="M24 152H162.5" stroke="#0C549F" stroke-width="5" stroke-linecap="round" stroke-linejoin="round"/>
<path d="M24 170H162.5" stroke="#0C549F" stroke-width="5" stroke-linecap="round" stroke-linejoin="round"/>
<path d="M24 206H267.5" stroke="#0C549F" stroke-width="3" stroke-linecap="round" stroke-linejoin="round"/>
<path d="M113 26H185" stroke="#0C549F" stroke-width="3" stroke-linecap="round" stroke-linejoin="round"/>
<path d="M24 188H161.5" stroke="#0C549F" stroke-width="5" stroke-linecap="round" stroke-linejoin="round"/>
<rect x="178.5" y="127.5" width="80" height="67" rx="6.5" stroke="#0C549F"/>
<path d="M208 209L214.72 219.053L224.617 212.106L227.252 223.908L238.99 221.006L237.183 232.962L249.178 234.496L243.174 244.992L253.804 250.756L244.414 258.374L252.244 267.588L240.736 271.301L244.709 282.721L232.637 282.026L232.216 294.11L221.211 289.101L216.452 300.217L208 291.57L199.548 300.217L194.789 289.101L183.784 294.11L183.363 282.026L171.291 282.721L175.264 271.301L163.756 267.588L171.586 258.374L162.196 250.756L172.826 244.992L166.822 234.496L178.817 232.962L177.01 221.006L188.748 223.908L191.383 212.106L201.28 219.053L208 209Z" fill="#0C549F"/>
<path d="M176.83 260H174.273L177.153 251.273H180.392L183.273 260H180.716L178.807 253.676H178.739L176.83 260ZM176.352 256.557H181.159V258.33H176.352V256.557ZM184.113 260V251.273H187.88C188.528 251.273 189.095 251.401 189.581 251.656C190.066 251.912 190.444 252.271 190.714 252.734C190.984 253.197 191.119 253.739 191.119 254.358C191.119 254.983 190.98 255.524 190.701 255.982C190.426 256.439 190.038 256.791 189.538 257.038C189.041 257.286 188.46 257.409 187.795 257.409H185.545V255.568H187.318C187.596 255.568 187.833 255.52 188.029 255.423C188.228 255.324 188.38 255.183 188.485 255.001C188.593 254.82 188.647 254.605 188.647 254.358C188.647 254.108 188.593 253.895 188.485 253.719C188.38 253.54 188.228 253.403 188.029 253.31C187.833 253.213 187.596 253.165 187.318 253.165H186.483V260H184.113ZM200.443 255.636C200.443 256.608 200.254 257.428 199.876 258.095C199.498 258.76 198.988 259.264 198.346 259.608C197.704 259.949 196.988 260.119 196.199 260.119C195.403 260.119 194.684 259.947 194.042 259.604C193.403 259.257 192.895 258.751 192.517 258.087C192.142 257.419 191.954 256.602 191.954 255.636C191.954 254.665 192.142 253.847 192.517 253.182C192.895 252.514 193.403 252.01 194.042 251.669C194.684 251.325 195.403 251.153 196.199 251.153C196.988 251.153 197.704 251.325 198.346 251.669C198.988 252.01 199.498 252.514 199.876 253.182C200.254 253.847 200.443 254.665 200.443 255.636ZM198.005 255.636C198.005 255.114 197.936 254.673 197.797 254.315C197.66 253.955 197.457 253.682 197.187 253.497C196.92 253.31 196.591 253.216 196.199 253.216C195.806 253.216 195.475 253.31 195.206 253.497C194.939 253.682 194.735 253.955 194.596 254.315C194.46 254.673 194.392 255.114 194.392 255.636C194.392 256.159 194.46 256.601 194.596 256.962C194.735 257.32 194.939 257.592 195.206 257.78C195.475 257.964 195.806 258.057 196.199 258.057C196.591 258.057 196.92 257.964 197.187 257.78C197.457 257.592 197.66 257.32 197.797 256.962C197.936 256.601 198.005 256.159 198.005 255.636ZM206.244 254C206.221 253.716 206.114 253.494 205.924 253.335C205.737 253.176 205.451 253.097 205.067 253.097C204.823 253.097 204.623 253.126 204.467 253.186C204.313 253.243 204.2 253.321 204.126 253.42C204.052 253.52 204.013 253.634 204.011 253.761C204.005 253.866 204.023 253.962 204.066 254.047C204.112 254.129 204.183 254.205 204.279 254.273C204.376 254.338 204.499 254.398 204.65 254.452C204.8 254.506 204.979 254.554 205.187 254.597L205.903 254.75C206.386 254.852 206.799 254.987 207.143 255.155C207.487 255.322 207.768 255.52 207.987 255.747C208.205 255.972 208.366 256.224 208.468 256.506C208.573 256.787 208.627 257.094 208.63 257.426C208.627 258 208.484 258.486 208.2 258.884C207.915 259.281 207.509 259.584 206.981 259.791C206.455 259.999 205.823 260.102 205.085 260.102C204.326 260.102 203.664 259.99 203.099 259.766C202.536 259.541 202.099 259.196 201.786 258.73C201.477 258.261 201.32 257.662 201.317 256.932H203.567C203.582 257.199 203.648 257.423 203.768 257.605C203.887 257.787 204.055 257.925 204.271 258.018C204.489 258.112 204.749 258.159 205.05 258.159C205.303 258.159 205.515 258.128 205.685 258.065C205.856 258.003 205.985 257.916 206.073 257.805C206.161 257.695 206.207 257.568 206.21 257.426C206.207 257.293 206.163 257.176 206.077 257.077C205.995 256.974 205.859 256.884 205.668 256.804C205.478 256.722 205.221 256.645 204.897 256.574L204.028 256.386C203.255 256.219 202.646 255.939 202.2 255.547C201.756 255.152 201.536 254.614 201.539 253.932C201.536 253.378 201.684 252.893 201.982 252.479C202.283 252.061 202.7 251.736 203.231 251.503C203.765 251.27 204.377 251.153 205.067 251.153C205.772 251.153 206.381 251.271 206.896 251.507C207.41 251.743 207.806 252.075 208.085 252.504C208.366 252.93 208.508 253.429 208.511 254H206.244ZM209.293 253.182V251.273H216.878V253.182H214.253V260H211.918V253.182H209.293ZM220.139 251.273V260H217.77V251.273H220.139ZM221.262 260V251.273H223.631V258.091H227.159V260H221.262ZM228.117 260V251.273H230.487V258.091H234.015V260H228.117ZM234.973 260V251.273H241.262V253.182H237.342V254.682H240.939V256.591H237.342V258.091H241.245V260H234.973Z" fill="white"/>
</svg>
