<svg width="670" height="671" viewBox="0 0 670 671" fill="none" xmlns="http://www.w3.org/2000/svg">
<path d="M553.402 61V617.5" stroke="#0C549F" stroke-width="15"/>
<path d="M130.902 46V525.5" stroke="#0C549F" stroke-width="15"/>
<path d="M553.402 63C553.402 34.0051 576.907 10.5 605.902 10.5H609.902C638.897 10.5 662.402 34.0051 662.402 63V160.5H553.402V63Z" stroke="#0C549F" stroke-width="15"/>
<path d="M552.902 177L552.902 610C552.902 639.271 529.173 663 499.902 663V663L497.902 663C464.765 663 437.902 636.137 437.902 603L437.902 525L8.4019 525" stroke="#0C549F" stroke-width="16"/>
<path d="M8.4019 517L8.40191 605C8.40191 641 -0.403084 662.5 64.4019 662.5C129.207 662.5 390.569 662.667 503.902 663" stroke="#0C549F" stroke-width="16"/>
<path d="M611.902 8H192.213C156.336 8 128.344 17.2391 131.088 58" stroke="#0C549F" stroke-width="14.5"/>
<path d="M264.902 86H415.402" stroke="#0C549F" stroke-width="17"/>
<path d="M178.902 151H501.402" stroke="#0C549F" stroke-width="17"/>
<path d="M178.902 205H501.402" stroke="#0C549F" stroke-width="17"/>
<path d="M178.902 259H501.402" stroke="#0C549F" stroke-width="17"/>
<path d="M178.902 316H501.402" stroke="#0C549F" stroke-width="17"/>
<path d="M174.902 368H264.902" stroke="#0C549F" stroke-width="17"/>
<path d="M281.902 368H302.902" stroke="#0C549F" stroke-width="17"/>
<path d="M328.902 368H349.902" stroke="#0C549F" stroke-width="17"/>
<circle cx="450.902" cy="439" r="49" stroke="#0C549F" stroke-width="18"/>
<path d="M636.902 85V130H589.902" stroke="#0C549F" stroke-width="10"/>
<path d="M389.402 543H415.902V571.5" stroke="#0C549F" stroke-width="10"/>
<path d="M378.402 543H370.652H362.902" stroke="#0C549F" stroke-width="10"/>
<path d="M107.402 550H99.6523H91.9023" stroke="#0C549F" stroke-width="10"/>
<path d="M82.4023 550H74.6523H66.9023" stroke="#0C549F" stroke-width="10"/>
<path d="M415.902 580V593" stroke="#0C549F" stroke-width="10"/>
<path d="M32.9023 572V550H59.9023" stroke="#0C549F" stroke-width="8"/>
</svg>
