<svg width="100" height="100" viewBox="0 0 100 100" fill="none" xmlns="http://www.w3.org/2000/svg">
<rect x="22.5" y="22.5" width="55" height="55" rx="27.5" fill="white" stroke="url(#paint0_linear_600_19)" stroke-width="3"/>
<path d="M57.6161 47.8519C60.7769 47.8519 63.3092 45.3332 63.3092 42.213C63.3092 39.0928 60.7769 36.5741 57.6161 36.5741C54.4554 36.5741 51.904 39.0928 51.904 42.213C51.904 45.3332 54.4554 47.8519 57.6161 47.8519ZM42.3838 47.8519C45.5445 47.8519 48.0769 45.3332 48.0769 42.213C48.0769 39.0928 45.5445 36.5741 42.3838 36.5741C39.2231 36.5741 36.6717 39.0928 36.6717 42.213C36.6717 45.3332 39.2231 47.8519 42.3838 47.8519ZM42.3838 51.6111C37.9474 51.6111 29.0555 53.8103 29.0555 58.1898V62.8889H55.7121V58.1898C55.7121 53.8103 46.8202 51.6111 42.3838 51.6111ZM57.6161 51.6111C57.064 51.6111 56.4356 51.6487 55.7692 51.7051C57.9779 53.284 59.5202 55.408 59.5202 58.1898V62.8889H70.9444V58.1898C70.9444 53.8103 62.0526 51.6111 57.6161 51.6111Z" fill="url(#paint1_linear_600_19)"/>
<defs>
<linearGradient id="paint0_linear_600_19" x1="50" y1="21" x2="50" y2="79" gradientUnits="userSpaceOnUse">
<stop stop-color="#0C1958"/>
<stop offset="1" stop-color="#0C4A93"/>
</linearGradient>
<linearGradient id="paint1_linear_600_19" x1="50" y1="36.5741" x2="50" y2="62.8889" gradientUnits="userSpaceOnUse">
<stop stop-color="#0E215F"/>
<stop offset="1" stop-color="#123977"/>
</linearGradient>
</defs>
</svg>
