<svg width="300" height="301" viewBox="0 0 300 301" fill="none" xmlns="http://www.w3.org/2000/svg">
<rect x="49" y="101" width="200" height="200" fill="#0C549F"/>
<rect x="55.5" y="108.5" width="33" height="75" stroke="white" stroke-width="3"/>
<rect x="209.5" y="213.5" width="33" height="75" stroke="white" stroke-width="3"/>
<rect x="55.5" y="213.5" width="33" height="75" stroke="white" stroke-width="3"/>
<rect x="209.5" y="108.5" width="33" height="75" stroke="white" stroke-width="3"/>
<rect x="100" y="259" width="97" height="37" fill="white"/>
<rect x="100" y="107" width="97" height="146" fill="white"/>
<rect y="90" width="300" height="6" fill="#0C549F"/>
<path d="M0 92H38.9351L147 4L265.058 92H300" stroke="#0C549F" stroke-width="5"/>
<circle cx="149" cy="59" r="16" fill="#0C549F"/>
<rect y="101" width="43" height="200" fill="#0C549F"/>
<rect x="255" y="101" width="43" height="200" fill="#0C549F"/>
<path d="M109.75 142V130.364H118.136V132.909H112.909V134.909H117.705V137.455H112.909V139.455H118.114V142H109.75ZM119.703 130.364H123.635L126.339 136.955H126.476L129.18 130.364H133.112V142H130.021V135.273H129.93L127.339 141.909H125.476L122.885 135.227H122.794V142H119.703V130.364ZM134.609 142V130.364H139.655C140.541 130.364 141.286 130.483 141.888 130.722C142.494 130.96 142.95 131.297 143.257 131.733C143.568 132.169 143.723 132.682 143.723 133.273C143.723 133.701 143.628 134.091 143.439 134.443C143.253 134.795 142.992 135.091 142.655 135.33C142.318 135.564 141.924 135.727 141.473 135.818V135.932C141.973 135.951 142.428 136.078 142.837 136.312C143.246 136.544 143.571 136.864 143.814 137.273C144.056 137.678 144.178 138.155 144.178 138.705C144.178 139.341 144.011 139.907 143.678 140.403C143.348 140.9 142.878 141.29 142.268 141.574C141.659 141.858 140.931 142 140.087 142H134.609ZM137.768 139.477H139.246C139.776 139.477 140.174 139.379 140.439 139.182C140.704 138.981 140.837 138.686 140.837 138.295C140.837 138.023 140.774 137.792 140.649 137.602C140.524 137.413 140.346 137.269 140.115 137.17C139.888 137.072 139.613 137.023 139.291 137.023H137.768V139.477ZM137.768 135.068H139.064C139.34 135.068 139.585 135.025 139.797 134.938C140.009 134.85 140.174 134.725 140.291 134.562C140.412 134.396 140.473 134.193 140.473 133.955C140.473 133.595 140.344 133.32 140.087 133.131C139.829 132.938 139.503 132.841 139.109 132.841H137.768V135.068ZM148.32 142H144.911L148.751 130.364H153.07L156.911 142H153.501L150.956 133.568H150.865L148.32 142ZM147.683 137.409H154.092V139.773H147.683V137.409ZM163.851 134C163.821 133.621 163.679 133.326 163.425 133.114C163.175 132.902 162.794 132.795 162.283 132.795C161.957 132.795 161.69 132.835 161.482 132.915C161.277 132.991 161.125 133.095 161.027 133.227C160.929 133.36 160.877 133.511 160.874 133.682C160.866 133.822 160.891 133.949 160.947 134.062C161.008 134.172 161.103 134.273 161.232 134.364C161.36 134.451 161.525 134.53 161.726 134.602C161.927 134.674 162.165 134.739 162.442 134.795L163.396 135C164.04 135.136 164.591 135.316 165.05 135.54C165.508 135.763 165.883 136.027 166.175 136.33C166.466 136.629 166.68 136.966 166.817 137.341C166.957 137.716 167.029 138.125 167.033 138.568C167.029 139.333 166.838 139.981 166.459 140.511C166.08 141.042 165.538 141.445 164.834 141.722C164.133 141.998 163.29 142.136 162.305 142.136C161.294 142.136 160.411 141.987 159.658 141.688C158.908 141.388 158.324 140.928 157.908 140.307C157.495 139.682 157.286 138.883 157.283 137.909H160.283C160.302 138.265 160.391 138.564 160.55 138.807C160.709 139.049 160.932 139.233 161.22 139.358C161.512 139.483 161.858 139.545 162.26 139.545C162.597 139.545 162.879 139.504 163.107 139.42C163.334 139.337 163.506 139.222 163.624 139.074C163.741 138.926 163.802 138.758 163.805 138.568C163.802 138.39 163.743 138.235 163.629 138.102C163.519 137.966 163.338 137.845 163.084 137.739C162.83 137.629 162.487 137.527 162.055 137.432L160.896 137.182C159.866 136.958 159.054 136.585 158.459 136.062C157.868 135.536 157.574 134.818 157.578 133.909C157.574 133.17 157.771 132.525 158.169 131.972C158.571 131.415 159.125 130.981 159.834 130.67C160.546 130.36 161.362 130.205 162.283 130.205C163.222 130.205 164.035 130.362 164.72 130.676C165.406 130.991 165.934 131.434 166.305 132.006C166.68 132.574 166.87 133.239 166.874 134H163.851ZM174.507 134C174.477 133.621 174.335 133.326 174.081 133.114C173.831 132.902 173.45 132.795 172.939 132.795C172.613 132.795 172.346 132.835 172.138 132.915C171.933 132.991 171.782 133.095 171.683 133.227C171.585 133.36 171.534 133.511 171.53 133.682C171.522 133.822 171.547 133.949 171.604 134.062C171.664 134.172 171.759 134.273 171.888 134.364C172.017 134.451 172.181 134.53 172.382 134.602C172.583 134.674 172.821 134.739 173.098 134.795L174.053 135C174.696 135.136 175.248 135.316 175.706 135.54C176.164 135.763 176.539 136.027 176.831 136.33C177.123 136.629 177.337 136.966 177.473 137.341C177.613 137.716 177.685 138.125 177.689 138.568C177.685 139.333 177.494 139.981 177.115 140.511C176.736 141.042 176.195 141.445 175.49 141.722C174.789 141.998 173.946 142.136 172.962 142.136C171.95 142.136 171.068 141.987 170.314 141.688C169.564 141.388 168.981 140.928 168.564 140.307C168.151 139.682 167.943 138.883 167.939 137.909H170.939C170.958 138.265 171.047 138.564 171.206 138.807C171.365 139.049 171.589 139.233 171.876 139.358C172.168 139.483 172.515 139.545 172.916 139.545C173.253 139.545 173.536 139.504 173.763 139.42C173.99 139.337 174.162 139.222 174.28 139.074C174.397 138.926 174.458 138.758 174.462 138.568C174.458 138.39 174.399 138.235 174.286 138.102C174.176 137.966 173.994 137.845 173.74 137.739C173.486 137.629 173.143 137.527 172.712 137.432L171.553 137.182C170.522 136.958 169.71 136.585 169.115 136.062C168.524 135.536 168.231 134.818 168.234 133.909C168.231 133.17 168.428 132.525 168.825 131.972C169.227 131.415 169.782 130.981 170.49 130.67C171.202 130.36 172.018 130.205 172.939 130.205C173.878 130.205 174.691 130.362 175.376 130.676C176.062 130.991 176.59 131.434 176.962 132.006C177.337 132.574 177.526 133.239 177.53 134H174.507ZM178.413 130.364H181.936L184.209 135.091H184.3L186.572 130.364H190.095L185.822 138.341V142H182.686V138.341L178.413 130.364Z" fill="#0C549F"/>
<rect x="95.5" y="203.5" width="33" height="43" fill="#0C549F" stroke="white" stroke-width="3"/>
<rect x="101.5" y="264.5" width="22" height="26" fill="#0C549F" stroke="white" stroke-width="3"/>
<rect x="150.5" y="264.5" width="21" height="26" fill="#0C549F" stroke="white" stroke-width="3"/>
<rect x="126.5" y="264.5" width="21" height="26" fill="#0C549F" stroke="white" stroke-width="3"/>
<rect x="174.5" y="264.5" width="21" height="26" fill="#0C549F" stroke="white" stroke-width="3"/>
<rect x="95.5" y="155.5" width="33" height="43" fill="#0C549F" stroke="white" stroke-width="3"/>
<rect x="169.5" y="155.5" width="33" height="43" fill="#0C549F" stroke="white" stroke-width="3"/>
<rect x="169.5" y="203.5" width="33" height="43" fill="#0C549F" stroke="white" stroke-width="3"/>
<rect x="4.5" y="106.5" width="33" height="186" stroke="white" stroke-width="3"/>
<rect x="260.5" y="106.5" width="33" height="186" stroke="white" stroke-width="3"/>
</svg>
