<svg width="100" height="100" viewBox="0 0 100 100" fill="none" xmlns="http://www.w3.org/2000/svg">
<rect x="24" y="14.6234" width="52" height="71.5325" rx="2" fill="#0C2567"/>
<rect x="26.0261" y="17.2727" width="47.9481" height="66.2338" fill="white"/>
<rect x="28.8264" y="49.7066" width="4.35059" height="4.25731" stroke="#038400" stroke-width="0.5"/>
<path d="M32.1657 50.2495L32.6184 50.8085L30.5068 53.4211L29.3847 52.0335L29.8374 51.4745L30.5068 52.2991L32.1657 50.2495Z" fill="#038400"/>
<rect x="28.8264" y="27.5058" width="4.35059" height="4.25731" stroke="#038400" stroke-width="0.5"/>
<path d="M32.1657 28.0487L32.6184 28.6077L30.5068 31.2203L29.3847 29.8327L29.8374 29.2737L30.5068 30.0983L32.1657 28.0487Z" fill="#038400"/>
<rect x="28.8264" y="71.9074" width="4.35059" height="4.25731" stroke="#038400" stroke-width="0.5"/>
<path d="M32.1657 72.4503L32.6184 73.0093L30.5068 75.6219L29.3847 74.2343L29.8374 73.6753L30.5068 74.4999L32.1657 72.4503Z" fill="#038400"/>
<rect x="38.2777" y="46.285" width="32.3373" height="2.37866" fill="#0C2567"/>
<rect x="38.2777" y="50.2495" width="32.3373" height="0.792885" fill="#0C2567"/>
<rect x="38.2777" y="51.8352" width="32.3373" height="0.792885" fill="#0C2567"/>
<rect x="38.2777" y="53.421" width="32.3373" height="0.792885" fill="#0C2567"/>
<rect x="38.2777" y="55.0068" width="32.3373" height="0.792885" fill="#0C2567"/>
<rect x="38.2777" y="56.5925" width="32.3373" height="0.792885" fill="#0C2567"/>
<rect x="38.2777" y="24.0842" width="32.3373" height="2.37866" fill="#0C2567"/>
<rect x="38.2777" y="28.0486" width="32.3373" height="0.792885" fill="#0C2567"/>
<rect x="38.2777" y="29.6344" width="32.3373" height="0.792885" fill="#0C2567"/>
<rect x="38.2777" y="31.2202" width="32.3373" height="0.792885" fill="#0C2567"/>
<rect x="38.2777" y="32.806" width="32.3373" height="0.792885" fill="#0C2567"/>
<rect x="38.2777" y="34.3917" width="32.3373" height="0.792885" fill="#0C2567"/>
<rect x="38.2777" y="68.4858" width="32.3373" height="2.37866" fill="#0C2567"/>
<rect x="38.2777" y="72.4503" width="32.3373" height="0.792885" fill="#0C2567"/>
<rect x="38.2777" y="74.036" width="32.3373" height="0.792885" fill="#0C2567"/>
<rect x="38.2777" y="75.6218" width="32.3373" height="0.792885" fill="#0C2567"/>
<rect x="38.2777" y="77.2076" width="32.3373" height="0.792885" fill="#0C2567"/>
<rect x="38.2777" y="78.7933" width="32.3373" height="0.792885" fill="#0C2567"/>
<path d="M66.211 19.9221H33.8868C31.5096 18.4318 31.5096 15.4513 33.8868 13.9611H66.211C68.4578 15.4513 68.4578 18.4318 66.211 19.9221Z" fill="#D9D9D9"/>
<ellipse cx="51.013" cy="12.9675" rx="4.72727" ry="4.96753" fill="#D9D9D9"/>
<ellipse cx="51.013" cy="12.9676" rx="1.35065" ry="1.65584" fill="white"/>
</svg>
