<svg width="100" height="100" viewBox="0 0 100 100" fill="none" xmlns="http://www.w3.org/2000/svg">
<path d="M88.8375 53.3069H9.99988V62.7985H88.8375V53.3069Z" fill="white"/>
<path d="M89.1004 62.7388C89.1004 62.7746 89.0706 62.7985 89.0407 62.7985H10.0596C10.0238 62.7985 9.99988 62.7686 9.99988 62.7388V53.3727C9.99988 53.3368 10.0298 53.3129 10.0596 53.3129H89.0347C89.0706 53.3129 89.0945 53.3428 89.0945 53.3727V62.7388H89.1004ZM9.99988 62.5355H88.8375V53.3069H9.99988V62.5355Z" fill="#242627"/>
<path d="M94.1094 60.605V33.9652L92.6629 31.1619C90.3797 28.0718 87.6422 28.2571 87.6422 28.2571H29.7961C28.7202 28.2571 27.6264 28.8189 27.6264 28.8189C25.391 29.4585 23.819 32.2498 23.819 32.2498L17.1725 46.7979L10.1076 48.358C7.13701 49.392 6.70068 53.2233 6.70068 53.2233L6.76643 63.3245H12.2952L14.0405 58.0886C14.0405 58.0886 14.6143 56.2059 16.5808 55.9429C18.5472 55.6739 25.5285 55.9429 25.5285 55.9429C25.5285 55.9429 27.6862 55.8114 28.3197 57.8256C28.7083 59.0689 29.4853 61.7526 30.0292 63.3305H62.3592L64.1045 58.0946C64.1045 58.0946 64.6783 56.2118 66.6447 55.9488C68.6112 55.6799 75.5924 55.9488 75.5924 55.9488C75.5924 55.9488 77.7501 55.8173 78.3837 57.8316C78.7722 59.0748 79.5492 61.7586 80.0872 63.3365H92.3521C94.725 62.8105 94.1153 60.6169 94.1153 60.6169L94.1094 60.605Z" fill="url(#paint0_linear_600_18)"/>
<path d="M94.3425 34.6704V33.9652L92.7825 31.0962C90.4992 28.006 87.6482 28.1256 87.6482 28.1256H29.7961C28.7202 28.1256 27.6264 28.7531 27.6264 28.7531C25.391 29.3927 23.819 32.2139 23.819 32.2139L22.7013 34.6704H94.3425Z" fill="url(#paint1_linear_600_18)"/>
<path d="M94.3424 54.2095H6.70654L6.76631 63.3723H12.2951L14.0404 58.1125C14.0404 58.1125 14.6142 56.2178 16.5807 55.9488C18.5471 55.6798 25.5283 55.9428 25.5283 55.9428C25.5283 55.9428 27.6861 55.8293 28.3196 57.8435C28.7081 59.0868 29.4852 61.5613 30.0291 63.3723H62.3591L64.1044 58.1125C64.1044 58.1125 64.6782 56.2178 66.6446 55.9488C68.6111 55.6798 75.5923 55.9428 75.5923 55.9428C75.5923 55.9428 77.75 55.8293 78.3836 57.8435C78.7721 59.0868 79.5491 61.5613 80.0871 63.3723H92.352C94.7249 62.667 94.3484 60.6049 94.3484 60.6049V54.2095H94.3424Z" fill="#E6E7E8"/>
<path d="M39.8495 54.1139V61.9678H37.2316V54.1139H10.5499C9.29475 55.8353 7.2207 56.8813 7.2207 56.8813V61.2147L12.0801 61.0114L13.8553 56.2776C13.8553 56.2776 14.8176 54.9208 16.6824 54.8192C18.5473 54.7176 26.5565 54.8192 26.5565 54.8192C26.5565 54.8192 28.2182 54.5921 28.8218 56.1043C29.4255 57.6165 30.6508 62.7806 30.6508 62.7806H61.6599L63.2737 57.6165C63.2737 57.6165 64.23 55.4229 66.1427 55.3272H75.8614C75.8614 55.3272 78.2283 55.3272 78.7304 56.5346C79.2325 57.742 80.6968 62.4758 80.6968 62.4758H90.565C90.565 62.4758 93.434 62.8285 93.5356 60.4615V54.1139H39.8495Z" fill="white"/>
<path d="M15.9473 63.4918L26.5745 64.9084C26.5745 64.9084 26.7299 59.8279 22.0259 59.1943C17.322 58.5548 15.9473 63.4918 15.9473 63.4918Z" fill="#230505"/>
<path d="M21.6015 56.2656C17.3816 56.1879 13.897 59.547 13.8193 63.7668C13.7416 67.9866 17.1007 71.4713 21.3205 71.549C25.5404 71.6267 29.025 68.2676 29.1027 64.0478C29.1804 59.8279 25.8213 56.3433 21.6015 56.2656ZM21.3684 68.8294C18.6488 68.7816 16.4851 66.5342 16.5329 63.8146C16.5807 61.0951 18.8281 58.9314 21.5477 58.9792C24.2672 59.027 26.4309 61.2744 26.3831 63.994C26.3353 66.7135 24.0879 68.8772 21.3684 68.8294Z" fill="#4D4E50"/>
<path d="M21.5776 56.2357C18.9058 56.1999 16.3955 57.5447 14.949 59.7921C13.4787 62.0813 13.389 65.0639 14.6442 67.4667C15.8396 69.7559 18.1826 71.28 20.7408 71.5371C23.3827 71.806 26.0066 70.6345 27.6144 68.5366C29.2701 66.3788 29.6048 63.4142 28.5588 60.9158C27.5606 58.5429 25.3611 56.8394 22.8507 56.3613C22.4323 56.2836 22.0079 56.2477 21.5836 56.2357C21.5059 56.2357 21.5955 56.2895 21.6314 56.2895C24.5422 56.3613 27.1661 58.1125 28.3795 60.7544C29.557 63.3246 29.1446 66.4087 27.4112 68.6202C25.636 70.8856 22.6475 71.9435 19.8383 71.3458C17.0649 70.7541 14.8474 68.5545 14.1302 65.8349C13.5205 63.5397 14.0704 61.0473 15.5288 59.1824C16.9872 57.3236 19.2824 56.2597 21.6374 56.2895C21.7151 56.2895 21.6254 56.2357 21.5895 56.2357H21.5776Z" fill="#121212"/>
<path d="M21.3445 68.7995C19.8442 68.7577 18.4635 68.0344 17.561 66.839C16.7003 65.7034 16.4134 64.2151 16.7123 62.8344C17.3458 59.8757 20.6631 58.2141 23.4245 59.4095C25.5524 60.336 26.688 62.7208 26.2039 64.9622C25.7197 67.2156 23.6277 68.8174 21.3445 68.7935C21.2668 68.7935 21.3564 68.8473 21.3923 68.8473C24.1059 68.8712 26.3652 66.7195 26.4429 63.9999C26.5147 61.364 24.3808 59.1585 21.7928 58.9553C19.115 58.7461 16.7481 60.8022 16.4971 63.45C16.2461 66.0799 18.2245 68.423 20.7946 68.7995C20.9918 68.8294 21.1951 68.8413 21.3923 68.8473C21.47 68.8473 21.3804 68.7935 21.3445 68.7935V68.7995Z" fill="#121212"/>
<g style="mix-blend-mode:multiply" opacity="0.5">
<path d="M28.4572 60.832C29.1684 63.8026 27.3335 63.9879 27.1542 62.5056C26.945 60.7424 25.5702 58.3755 22.504 57.8316C19.4378 57.2876 16.0846 58.9373 15.4869 62.3442C15.2239 63.8206 15.8874 65.4284 16.0069 66.3309C16.1683 67.5084 15.7798 67.7236 14.955 67.3231C14.7756 67.2335 14.6083 67.108 14.4469 66.9585C15.6005 69.6183 18.2304 71.5011 21.3205 71.5609C25.5403 71.6386 29.025 68.2795 29.1027 64.0597C29.1266 62.918 28.8935 61.8302 28.4572 60.85V60.832ZM21.3683 68.8294C18.6488 68.7815 16.4851 66.5342 16.5329 63.8146C16.5807 61.095 18.8281 58.9313 21.5477 58.9791C24.2672 59.027 26.4309 61.2743 26.3831 63.9939C26.3353 66.7135 24.0879 68.8772 21.3683 68.8294Z" fill="black"/>
</g>
<path fill-rule="evenodd" clip-rule="evenodd" d="M21.428 63.1631C22.5397 64.4183 19.8201 65.2969 20.0413 63.4859C20.3641 63.205 20.9438 62.8762 21.428 63.1631Z" fill="white"/>
<path fill-rule="evenodd" clip-rule="evenodd" d="M21.428 63.1631C22.5397 64.4183 19.8201 65.2969 20.0413 63.4859C20.3641 63.205 20.9438 62.8762 21.428 63.1631ZM21.1351 64.1972C21.1172 63.8266 21.2248 63.6054 21.0096 63.5038C20.5195 63.2707 20.3641 64.2988 21.1351 64.1972Z" fill="#1A1718"/>
<path fill-rule="evenodd" clip-rule="evenodd" d="M21.1293 64.1912C21.1113 63.8206 21.2189 63.5994 21.0037 63.4978C20.5136 63.2647 20.3582 64.2928 21.1293 64.1912Z" fill="white"/>
<path d="M22.3116 58.9684L20.6136 61.8043L20.7419 61.881L22.4398 59.0451L22.3116 58.9684Z" fill="url(#paint2_radial_600_18)"/>
<path d="M20.6649 58.9458L20.5339 59.0178L22.1268 61.914L22.2577 61.8419L20.6649 58.9458Z" fill="url(#paint3_radial_600_18)"/>
<path d="M23.9446 59.5608L21.3792 61.645L21.4734 61.7609L24.0388 59.6768L23.9446 59.5608Z" fill="url(#paint4_radial_600_18)"/>
<path d="M22.4083 58.9672L22.9104 62.2307L22.767 62.2546L22.2589 58.9911L22.4083 58.9672Z" fill="url(#paint5_radial_600_18)"/>
<path d="M25.3313 60.8142L22.2053 61.89L22.1575 61.7526L25.2835 60.6707L25.3313 60.8142Z" fill="url(#paint6_radial_600_18)"/>
<path d="M24.0401 59.5889L23.3945 62.8284L23.2511 62.8045L23.8966 59.5649L24.0401 59.5889Z" fill="url(#paint7_radial_600_18)"/>
<path d="M22.8516 62.1255L22.8492 62.2749L26.1541 62.328L26.1565 62.1786L22.8516 62.1255Z" fill="url(#paint8_radial_600_18)"/>
<path d="M25.2348 60.6564L23.5226 63.4836L23.6504 63.561L25.3626 60.7338L25.2348 60.6564Z" fill="url(#paint9_radial_600_18)"/>
<path d="M26.4129 64.0239L23.3287 62.8464L23.3766 62.7089L26.4667 63.8864L26.4129 64.0239Z" fill="url(#paint10_radial_600_18)"/>
<path d="M26.2097 62.2546L23.6336 64.3286L23.5439 64.215L26.1141 62.141L26.2097 62.2546Z" fill="url(#paint11_radial_600_18)"/>
<path d="M23.6705 63.4345L23.5726 63.5474L26.0706 65.712L26.1684 65.5991L23.6705 63.4345Z" fill="url(#paint12_radial_600_18)"/>
<path d="M26.4846 63.982L23.3586 65.0459L23.3108 64.9085L26.4368 63.8445L26.4846 63.982Z" fill="url(#paint13_radial_600_18)"/>
<path d="M23.705 64.2192L23.5745 64.2919L25.1815 67.1802L25.312 67.1076L23.705 64.2192Z" fill="url(#paint14_radial_600_18)"/>
<path d="M26.1559 65.6974L22.8566 65.6257V65.4822L26.1619 65.548L26.1559 65.6974Z" fill="url(#paint15_radial_600_18)"/>
<path d="M23.8368 68.2555L23.3108 64.992L23.4602 64.9681L23.9802 68.2316L23.8368 68.2555Z" fill="url(#paint16_radial_600_18)"/>
<path d="M25.2593 67.1917L22.1812 66.0022L22.2349 65.8647L25.3131 67.0542L25.2593 67.1917Z" fill="url(#paint17_radial_600_18)"/>
<path d="M22.8265 65.5554L22.2009 68.801L22.3477 68.8292L22.9732 65.5837L22.8265 65.5554Z" fill="url(#paint18_radial_600_18)"/>
<path d="M21.5199 66.0048L21.4215 66.1172L23.9085 68.2944L24.0069 68.182L21.5199 66.0048Z" fill="url(#paint19_radial_600_18)"/>
<path d="M22.1824 65.9305L20.4845 68.7664L20.6127 68.8431L22.3106 66.0072L22.1824 65.9305Z" fill="url(#paint20_radial_600_18)"/>
<path d="M20.7927 65.9048L20.6617 65.9768L22.2541 68.8733L22.385 68.8013L20.7927 65.9048Z" fill="url(#paint21_radial_600_18)"/>
<path d="M18.8818 68.136L21.446 66.056L21.5357 66.1696L18.9715 68.2496L18.8818 68.136Z" fill="url(#paint22_radial_600_18)"/>
<path d="M20.5137 68.8413L20.0056 65.5778L20.1491 65.5539L20.6571 68.8234L20.5137 68.8413Z" fill="url(#paint23_radial_600_18)"/>
<path d="M17.5909 67.0004L20.711 65.9185L20.7588 66.056L17.6388 67.1378L17.5909 67.0004Z" fill="url(#paint24_radial_600_18)"/>
<path d="M18.8818 68.2197L19.5214 64.9801L19.6648 65.01L19.0253 68.2496L18.8818 68.2197Z" fill="url(#paint25_radial_600_18)"/>
<path d="M16.7703 65.4901L16.7679 65.6395L20.0728 65.6926L20.0752 65.5432L16.7703 65.4901Z" fill="url(#paint26_radial_600_18)"/>
<path d="M17.561 67.0781L19.2705 64.2509L19.396 64.3286L17.6866 67.1558L17.561 67.0781Z" fill="url(#paint27_radial_600_18)"/>
<path d="M16.5089 63.7907L19.593 64.9682L19.5392 65.1057L16.4551 63.9282L16.5089 63.7907Z" fill="url(#paint28_radial_600_18)"/>
<path d="M16.7123 65.554L19.2824 63.4859L19.3781 63.5995L16.8019 65.6675L16.7123 65.554Z" fill="url(#paint29_radial_600_18)"/>
<path d="M16.8458 62.1019L16.7479 62.2148L19.2455 64.3798L19.3434 64.2669L16.8458 62.1019Z" fill="url(#paint30_radial_600_18)"/>
<path d="M16.4313 63.8266L19.5573 62.7627L19.6051 62.9061L16.4791 63.9701L16.4313 63.8266Z" fill="url(#paint31_radial_600_18)"/>
<path d="M17.7409 60.6383L17.6104 60.711L19.2173 63.5994L19.3479 63.5267L17.7409 60.6383Z" fill="url(#paint32_radial_600_18)"/>
<path d="M16.76 62.1172L20.0653 62.1829L20.0594 62.3324L16.76 62.2606V62.1172Z" fill="url(#paint33_radial_600_18)"/>
<path d="M19.0851 59.559L19.6051 62.8165L19.4617 62.8404L18.9417 59.5829L19.0851 59.559Z" fill="url(#paint34_radial_600_18)"/>
<path d="M17.6608 60.6129L17.6068 60.7522L20.6886 61.9469L20.7427 61.8076L17.6608 60.6129Z" fill="url(#paint35_radial_600_18)"/>
<path d="M20.7168 59.0091L20.0893 62.2486L19.9458 62.2247L20.5674 58.9792L20.7168 59.0091Z" fill="url(#paint36_radial_600_18)"/>
<path d="M19.0135 59.5171L21.4999 61.6927L21.3983 61.8003L18.9119 59.6247L19.0135 59.5171Z" fill="url(#paint37_radial_600_18)"/>
<path d="M21.3744 68.5605V68.2676C22.5817 68.2915 23.6815 67.8253 24.4824 67.0483C25.2894 66.2712 25.7914 65.1954 25.8153 63.988C25.8392 62.7866 25.373 61.6868 24.596 60.8799C23.819 60.073 22.7431 59.5709 21.5358 59.547C20.3284 59.5231 19.2346 59.9953 18.4277 60.7664C17.6208 61.5434 17.1187 62.6192 17.0948 63.8266C17.0709 65.034 17.5431 66.1278 18.3141 66.9347C19.0911 67.7416 20.167 68.2437 21.3744 68.2676V68.5605L21.3624 68.8533C18.6309 68.8055 16.4552 66.5462 16.509 63.8147C16.5568 61.0831 18.8162 58.9075 21.5477 58.9553C24.2792 59.0031 26.4549 61.2624 26.4011 63.994C26.3533 66.7255 24.0939 68.9011 21.3624 68.8474V68.5545L21.3744 68.5605Z" fill="#AEB8B9"/>
<path d="M21.4521 68.3572V68.0703C22.6295 68.0882 23.6935 67.634 24.4765 66.8808C25.2594 66.1277 25.7496 65.0758 25.7735 63.9043C25.7974 62.7328 25.3372 61.6688 24.59 60.8858C23.8369 60.1028 22.7849 59.6127 21.6134 59.5888C20.4419 59.5649 19.378 60.0192 18.595 60.7783C17.812 61.5314 17.3219 62.5833 17.298 63.7548C17.2741 64.9263 17.7343 65.9962 18.4874 66.7733C19.2405 67.5563 20.2925 68.0464 21.464 68.0703V68.3572L21.4521 68.6441C18.7923 68.5963 16.6824 66.4027 16.7302 63.7429C16.778 61.0891 18.9716 58.9732 21.6254 59.021C24.2852 59.0688 26.3951 61.2624 26.3473 63.9222C26.2995 66.582 24.1059 68.6919 21.4461 68.6441V68.3572H21.4521Z" fill="#CCD4D5"/>
<path d="M21.3624 68.3154V68.0404C22.4741 68.0583 23.4842 67.616 24.2254 66.8868C24.9665 66.1576 25.4328 65.1356 25.4567 63.9999C25.4746 62.8643 25.0502 61.8302 24.333 61.0711C23.6217 60.3121 22.6295 59.8339 21.5178 59.816C20.412 59.798 19.3959 60.2403 18.6607 60.9695C17.9196 61.7047 17.4534 62.7208 17.4354 63.8565C17.4115 64.9921 17.8419 66.0261 18.5591 66.7852C19.2704 67.5443 20.2626 68.0225 21.3743 68.0404V68.3154L21.3624 68.5963C18.846 68.5485 16.8497 66.4206 16.8915 63.8445C16.9393 61.2684 19.0134 59.2123 21.5297 59.2601C24.0461 59.3079 26.0424 61.4358 25.9946 64.0119C25.9468 66.588 23.8727 68.6441 21.3564 68.5963V68.3154H21.3624Z" fill="#E8EAEB"/>
<path d="M21.5418 59.4154C19.0613 59.3736 17.0172 61.346 16.9694 63.8206C16.9215 66.301 18.894 68.3452 21.3745 68.393C23.8549 68.4408 25.8991 66.4684 25.9469 63.9879C25.9947 61.5074 24.0223 59.4633 21.5418 59.4154ZM24.2076 66.7553C23.4784 67.4606 22.4802 67.885 21.3864 67.861C20.2926 67.8431 19.3124 67.3829 18.6131 66.6537C17.9078 65.9245 17.4834 64.9263 17.5073 63.8325C17.5252 62.7387 17.9855 61.7585 18.7147 61.0591C19.4439 60.3538 20.442 59.9295 21.5358 59.9534C22.6296 59.9713 23.6099 60.4315 24.3092 61.1608C25.0145 61.89 25.4389 62.8881 25.415 63.976C25.397 65.0698 24.9368 66.05 24.2076 66.7493V66.7553Z" fill="#8F9394"/>
<path d="M17.537 65.9305C16.4552 62.8404 18.1407 60.6348 19.8203 60.0431C20.3582 59.8518 21.7509 59.6964 21.8883 59.7323C20.7646 59.7263 19.623 60.0192 18.7504 60.7544C17.9315 61.4477 17.6028 62.5057 17.4653 63.5397C17.2442 65.1774 18.0989 66.8868 19.5752 67.5503C19.5633 67.6161 19.0911 67.5025 19.1628 67.5503C20.3343 68.2496 22.0437 68.3871 23.2152 67.7177C24.1417 67.1917 25.1279 66.4326 25.5344 65.4045C25.9288 64.4064 25.8392 63.1452 25.367 62.1769C24.8291 61.0771 24.0162 60.5512 22.9762 60.0431C23.4304 60.1865 23.8668 60.3718 24.2493 60.6707C25.0024 61.2624 25.4686 62.0275 25.8332 62.8882C25.9169 63.2408 25.9587 63.6054 25.9468 63.982C25.899 66.4625 23.8548 68.4349 21.3743 68.3871C18.9118 68.3453 16.9453 66.319 16.9692 63.8565C16.9573 64.4841 17.5789 66.0501 17.5311 65.9186L17.537 65.9305Z" fill="#BBC1C2"/>
<path d="M25.4148 63.976C25.4328 63.0615 25.1339 62.2187 24.6318 61.5433C24.8231 61.7645 24.9905 62.0215 25.116 62.3263C25.5164 63.2767 25.7017 64.5378 25.1817 65.4762C25.0562 65.7094 24.9008 65.9305 24.7275 66.1337C25.1459 65.5181 25.3969 64.7829 25.4148 63.982V63.976Z" fill="#BBC1C2"/>
<path d="M19.0314 63.9222H19.3243C19.3123 64.5199 19.5394 65.0519 19.922 65.4464C20.3045 65.8409 20.8305 66.0859 21.4162 66.0979C22.008 66.1098 22.5399 65.8827 22.9344 65.5002C23.3289 65.1176 23.574 64.5917 23.5859 64.0059C23.5979 63.4142 23.3707 62.8822 22.9882 62.4877C22.6117 62.0932 22.0797 61.8482 21.4939 61.8362C20.9022 61.8243 20.3703 62.0514 19.9758 62.4339C19.5813 62.8165 19.3362 63.3424 19.3243 63.9282H19.0314L18.7385 63.9162C18.7684 62.416 20.0057 61.2206 21.5059 61.2445C23.0061 61.2744 24.2016 62.5116 24.1776 64.0119C24.1478 65.5121 22.9105 66.7075 21.4103 66.6836C19.91 66.6537 18.7146 65.4165 18.7385 63.9162H19.0314V63.9222Z" fill="#8F9394"/>
<path d="M19.1448 63.8325H19.4317C19.4197 64.4063 19.6468 64.9263 20.0174 65.3029C20.388 65.6854 20.902 65.9245 21.4818 65.9305C22.0616 65.9424 22.5816 65.7213 22.9701 65.3567C23.3526 64.9921 23.5977 64.4781 23.6096 63.9102C23.6216 63.3424 23.3945 62.8224 23.0239 62.4459C22.6533 62.0633 22.1393 61.8242 21.5595 61.8123C20.9797 61.8003 20.4597 62.0215 20.0712 62.3921C19.6887 62.7567 19.4436 63.2647 19.4317 63.8385H19.1448L18.8579 63.8266C18.8818 62.3741 20.0951 61.2206 21.5655 61.2504C23.0358 61.2744 24.2014 62.4757 24.1775 63.9282C24.1535 65.3806 22.9402 66.5342 21.4698 66.5043C19.9995 66.4744 18.828 65.279 18.8579 63.8266H19.1448V63.8325Z" fill="#A3A6A8"/>
<path d="M19.2227 63.8923H19.4977C19.4857 64.4542 19.7009 64.9563 20.0595 65.3268C20.4181 65.6974 20.9082 65.9305 21.4641 65.9425C22.02 65.9544 22.5221 65.7392 22.8867 65.3806C23.2572 65.022 23.4903 64.5259 23.4963 63.976C23.5083 63.4201 23.2931 62.9181 22.9345 62.5475C22.5758 62.1769 22.0857 61.9438 21.5299 61.9319C20.974 61.9199 20.4719 62.1351 20.1073 62.4937C19.7367 62.8523 19.5036 63.3484 19.4977 63.8983H19.2227L18.9478 63.8864C18.9717 62.4758 20.1372 61.3521 21.5478 61.376C22.9584 61.3999 24.0761 62.5654 24.0522 63.976C24.0283 65.3866 22.8627 66.5103 21.4522 66.4864C20.0416 66.4625 18.9239 65.2969 18.9478 63.8804H19.2227V63.8923Z" fill="#E8EAEB"/>
<path d="M19.0313 63.9222C19.0074 65.261 20.0713 66.3668 21.4161 66.3907C22.755 66.4146 23.8608 65.3507 23.8847 64.0059C23.9086 62.667 22.8447 61.5612 21.5058 61.5373C20.1669 61.5134 19.0612 62.5773 19.0373 63.9222H19.0313Z" fill="#AEB8B9"/>
<path d="M22.9463 65.7572C22.9582 65.022 21.6971 65.5958 21.3922 65.5779C20.3283 65.5181 19.9816 64.7232 20.0056 63.7668C20.0115 63.456 20.0773 63.0735 19.8322 62.8404C19.6589 62.673 19.4377 62.7866 19.2524 62.9719C19.641 62.1172 20.5076 61.5254 21.5058 61.5434C22.8447 61.5673 23.9146 62.673 23.8847 64.0119C23.8727 64.7889 23.4962 65.4703 22.9224 65.9007C22.9343 65.8528 22.9463 65.805 22.9463 65.7512V65.7572Z" fill="#CCD4D5"/>
<path d="M22.7191 62.7328C23.5261 63.2408 23.5619 64.6634 22.761 64.8965C22.8208 64.4004 23.0539 64.0119 22.9283 63.4739C22.8387 63.0795 22.486 62.8284 22.1454 62.673C21.8883 62.5594 21.6493 62.5236 21.4281 62.5535C21.5476 62.5176 21.6612 62.4638 21.7449 62.3682C21.8704 62.2307 21.8226 62.0454 21.721 61.9199C21.452 61.5852 20.4957 62.0096 20.0952 61.9677C20.4957 61.6928 20.9798 61.5314 21.5058 61.5433C21.9541 61.5493 22.3665 61.6808 22.7251 61.902C22.5279 62.1829 22.3366 62.4937 22.7251 62.7388L22.7191 62.7328Z" fill="#E8EAEB"/>
<path d="M20.412 63.8864H20.7048C20.6989 64.3048 21.0276 64.6514 21.446 64.6574C21.8644 64.6634 22.2051 64.3346 22.2111 63.9162C22.217 63.5038 21.8883 63.1572 21.4699 63.1512C21.0515 63.1452 20.7108 63.4739 20.7048 63.8923H20.412L20.1191 63.8804C20.131 63.1392 20.7407 62.5535 21.4818 62.5654C22.223 62.5774 22.8088 63.193 22.7968 63.9282C22.7849 64.6694 22.1692 65.2551 21.434 65.2432C20.6929 65.2312 20.1071 64.6215 20.1191 63.8804H20.412V63.8864Z" fill="#8F9394"/>
<path d="M20.412 63.8864H20.7048C20.6989 64.3048 21.0276 64.6514 21.446 64.6574C21.8644 64.6634 22.2051 64.3346 22.2111 63.9162C22.217 63.5038 21.8883 63.1572 21.4699 63.1512C21.0515 63.1452 20.7108 63.4739 20.7048 63.8923H20.412L20.1191 63.8804C20.131 63.1392 20.7407 62.5535 21.4818 62.5654C22.223 62.5774 22.8088 63.193 22.7968 63.9282C22.7849 64.6694 22.1692 65.2551 21.434 65.2432C20.6929 65.2312 20.1071 64.6215 20.1191 63.8804H20.412V63.8864Z" fill="#8F9394"/>
<path d="M20.412 63.8864H20.7048C20.6989 64.3048 21.0276 64.6514 21.446 64.6574C21.8644 64.6634 22.2051 64.3346 22.2111 63.9162C22.217 63.5038 21.8883 63.1572 21.4699 63.1512C21.0515 63.1452 20.7108 63.4739 20.7048 63.8923H20.412L20.1191 63.8804C20.131 63.1392 20.7407 62.5535 21.4818 62.5654C22.223 62.5774 22.8088 63.193 22.7968 63.9282C22.7849 64.6694 22.1692 65.2551 21.434 65.2432C20.6929 65.2312 20.1071 64.6215 20.1191 63.8804H20.412V63.8864Z" fill="#8F9394"/>
<path d="M20.4659 63.8206H20.7528C20.7528 64.2211 21.0696 64.5498 21.476 64.5558C21.8825 64.5618 22.2172 64.251 22.2232 63.8505C22.2291 63.456 21.9064 63.1273 21.4999 63.1213C21.0935 63.1153 20.7588 63.4321 20.7468 63.8206H20.4599L20.173 63.8087C20.185 63.1034 20.7827 62.5475 21.5059 62.5595C22.2291 62.5714 22.8089 63.1512 22.797 63.8565C22.785 64.5618 22.1873 65.1176 21.4641 65.1057C20.7409 65.0937 20.1611 64.514 20.173 63.8087H20.4599L20.4659 63.8206Z" fill="#CCD4D5"/>
<path d="M20.4658 63.8445H20.7348C20.7288 64.2211 21.0336 64.5259 21.4221 64.5319C21.8047 64.5379 22.1215 64.245 22.1334 63.8744C22.1394 63.5039 21.8346 63.199 21.4461 63.1871C21.0575 63.1811 20.7408 63.474 20.7348 63.8445H20.4658L20.1909 63.8326C20.2028 63.1691 20.7706 62.6432 21.452 62.6611C22.1394 62.673 22.6833 63.217 22.6714 63.8804C22.6594 64.5439 22.0916 65.0698 21.4102 65.0519C20.7228 65.04 20.1789 64.4901 20.1909 63.8326H20.4658V63.8445Z" fill="#E8EAEB"/>
<path d="M20.412 63.8863C20.4 64.4661 20.8603 64.9383 21.44 64.9502C22.0198 64.9622 22.492 64.502 22.5039 63.9222C22.5159 63.3424 22.0557 62.8642 21.4759 62.8583C20.8961 62.8463 20.4239 63.3065 20.412 63.8863Z" fill="#AEB8B9"/>
<path d="M21.99 64.4422C22.0438 64.1613 21.9183 63.8027 21.6314 63.7011C21.4521 63.6413 21.2728 63.6413 21.0875 63.6293C20.6631 63.6054 20.7588 63.2528 20.9201 63.0137C21.0815 62.9121 21.2728 62.8583 21.482 62.8643C22.0618 62.8762 22.522 63.3544 22.51 63.9282C22.4981 64.508 22.0199 64.9682 21.4461 64.9563H21.4282C21.7031 64.9084 21.9303 64.765 21.99 64.4482V64.4422Z" fill="#CCD4D5"/>
<path d="M22.1214 63.3186C22.0437 63.3604 22.0317 63.4501 22.0616 63.5218C22.1393 63.6891 22.1274 63.982 22.0855 64.1613C22.0616 64.2629 22.0736 64.4662 22.0616 64.245C22.0557 64.1553 22.0497 64.0657 22.0437 63.976C22.0317 63.8326 22.0437 63.6413 21.9421 63.5278C21.8704 63.4441 21.8046 63.3843 21.703 63.3365C21.4699 63.2289 21.6432 63.0197 21.7807 62.9181C21.9779 62.9838 22.1513 63.1034 22.2768 63.2648C22.229 63.2767 22.1752 63.2946 22.1214 63.3245V63.3186Z" fill="#E8EAEB"/>
<path d="M21.5596 58.4591C18.5531 58.4053 16.0726 60.7962 16.0129 63.8026C15.9591 66.8091 18.3499 69.2896 21.3564 69.3494C24.3628 69.4032 26.8433 67.0123 26.9031 64.0059C26.9569 60.9994 24.566 58.5189 21.5596 58.4591ZM21.3683 68.8174C18.6547 68.7696 16.497 66.5282 16.5448 63.8146C16.5926 61.101 18.834 58.9373 21.5476 58.9911C24.2612 59.0389 26.4249 61.2803 26.3711 63.9939C26.3233 66.7075 24.0819 68.8652 21.3683 68.8174Z" fill="url(#paint38_radial_600_18)"/>
<path d="M65.9634 63.4918L76.5906 64.9084C76.5906 64.9084 76.746 59.8279 72.0421 59.1943C67.3381 58.5548 65.9634 63.4918 65.9634 63.4918Z" fill="#230505"/>
<path d="M71.6116 56.2656C67.3918 56.1879 63.9071 59.547 63.8294 63.7668C63.7517 67.9866 67.1109 71.4713 71.3307 71.549C75.5505 71.6267 79.0351 68.2676 79.1128 64.0478C79.1905 59.8279 75.8314 56.3433 71.6116 56.2656ZM71.3785 68.8294C68.6589 68.7816 66.4952 66.5342 66.543 63.8146C66.5909 61.0951 68.8382 58.9314 71.5578 58.9792C74.2774 59.027 76.4411 61.2744 76.3932 63.994C76.3454 66.7135 74.0981 68.8772 71.3785 68.8294Z" fill="#4D4E50"/>
<path d="M71.5877 56.2357C68.916 56.1999 66.4056 57.5447 64.9591 59.7921C63.4888 62.0813 63.3991 65.0639 64.6543 67.4667C65.8497 69.7559 68.1927 71.28 70.7509 71.5371C73.3928 71.806 76.0167 70.6345 77.6246 68.5366C79.2802 66.3788 79.6149 63.4142 78.5689 60.9158C77.5708 58.5429 75.3712 56.8394 72.8608 56.3613C72.4424 56.2836 72.0181 56.2477 71.5937 56.2357C71.516 56.2357 71.6057 56.2895 71.6415 56.2895C74.5523 56.3613 77.1763 58.1125 78.3896 60.7544C79.5671 63.3246 79.1547 66.4087 77.4213 68.6202C75.6461 70.8856 72.6576 71.9435 69.8484 71.3458C67.075 70.7541 64.8575 68.5545 64.1403 65.8349C63.5306 63.5397 64.0805 61.0473 65.5389 59.1824C66.9973 57.3236 69.2925 56.2597 71.6475 56.2895C71.7252 56.2895 71.6355 56.2357 71.5997 56.2357H71.5877Z" fill="#121212"/>
<path d="M71.3605 68.7995C69.8602 68.7577 68.4795 68.0344 67.577 66.839C66.7163 65.7034 66.4294 64.2151 66.7283 62.8344C67.3618 59.8757 70.6791 58.2141 73.4405 59.4095C75.5683 60.336 76.704 62.7208 76.2198 64.9622C75.7357 67.2156 73.6377 68.8174 71.3605 68.7935C71.2828 68.7935 71.3724 68.8473 71.4083 68.8473C74.1219 68.8712 76.3812 66.7195 76.4589 63.9999C76.5307 61.364 74.3968 59.1585 71.8088 58.9553C69.131 58.7461 66.7581 60.8022 66.5131 63.45C66.262 66.0799 68.2405 68.423 70.8106 68.7995C71.0078 68.8294 71.2111 68.8413 71.4083 68.8473C71.486 68.8473 71.3963 68.7935 71.3605 68.7935V68.7995Z" fill="#121212"/>
<g style="mix-blend-mode:multiply" opacity="0.5">
<path d="M71.3844 68.8294C68.6649 68.7816 66.5012 66.5343 66.549 63.8147C66.5968 61.0951 68.8442 58.9314 71.5638 58.9792C74.2833 59.027 76.447 61.2744 76.3992 63.994C76.3514 66.7136 74.104 68.8773 71.3844 68.8294Z" fill="#4D4E50"/>
</g>
<path fill-rule="evenodd" clip-rule="evenodd" d="M71.4441 63.1631C72.5558 64.4183 69.8363 65.2969 70.0574 63.4859C70.3862 63.205 70.96 62.8762 71.4441 63.1631Z" fill="white"/>
<path fill-rule="evenodd" clip-rule="evenodd" d="M71.4441 63.1631C72.5558 64.4183 69.8363 65.2969 70.0574 63.4859C70.3862 63.205 70.96 62.8762 71.4441 63.1631ZM71.1512 64.1972C71.1333 63.8266 71.2409 63.6054 71.0257 63.5038C70.5296 63.2707 70.3802 64.2988 71.1512 64.1972Z" fill="#1A1718"/>
<path fill-rule="evenodd" clip-rule="evenodd" d="M71.1454 64.1912C71.1275 63.8206 71.2351 63.5994 71.0199 63.4978C70.5238 63.2647 70.3744 64.2928 71.1454 64.1912Z" fill="white"/>
<path d="M72.3221 58.9703L70.6241 61.8062L70.7523 61.883L72.4503 59.0471L72.3221 58.9703Z" fill="url(#paint39_radial_600_18)"/>
<path d="M70.6768 58.9441L70.5459 59.0162L72.1393 61.9121L72.2702 61.8401L70.6768 58.9441Z" fill="url(#paint40_radial_600_18)"/>
<path d="M73.966 59.5647L71.4005 61.6488L71.4947 61.7648L74.0602 59.6806L73.966 59.5647Z" fill="url(#paint41_radial_600_18)"/>
<path d="M72.4245 58.9672L72.9265 62.2307L72.7831 62.2546L72.275 58.9911L72.4245 58.9672Z" fill="url(#paint42_radial_600_18)"/>
<path d="M75.296 60.6658L72.1722 61.7463L72.2211 61.8875L75.3448 60.807L75.296 60.6658Z" fill="url(#paint43_radial_600_18)"/>
<path d="M74.0562 59.5889L73.4107 62.8284L73.2672 62.8045L73.9068 59.5649L74.0562 59.5889Z" fill="url(#paint44_radial_600_18)"/>
<path d="M72.8698 62.12L72.8674 62.2694L76.1723 62.3225L76.1747 62.1731L72.8698 62.12Z" fill="url(#paint45_radial_600_18)"/>
<path d="M75.2531 60.6633L73.5409 63.4906L73.6687 63.568L75.381 60.7408L75.2531 60.6633Z" fill="url(#paint46_radial_600_18)"/>
<path d="M73.3921 62.7002L73.3387 62.8398L76.4266 64.019L76.4799 63.8794L73.3921 62.7002Z" fill="url(#paint47_radial_600_18)"/>
<path d="M76.226 62.2546L73.6498 64.3286L73.5602 64.215L76.1303 62.141L76.226 62.2546Z" fill="url(#paint48_radial_600_18)"/>
<path d="M73.6866 63.4344L73.5887 63.5473L76.0867 65.7119L76.1846 65.5989L73.6866 63.4344Z" fill="url(#paint49_radial_600_18)"/>
<path d="M76.5008 63.982L73.3748 65.0459L73.327 64.9085L76.453 63.8445L76.5008 63.982Z" fill="url(#paint50_radial_600_18)"/>
<path d="M75.1917 67.1797L73.5898 64.2928L73.7154 64.2211L75.3232 67.108L75.1917 67.1797Z" fill="url(#paint51_radial_600_18)"/>
<path d="M76.1721 65.6974L72.8668 65.6257L72.8728 65.4822L76.1721 65.548V65.6974Z" fill="url(#paint52_radial_600_18)"/>
<path d="M73.4726 64.9746L73.3251 64.9982L73.8473 68.262L73.9948 68.2384L73.4726 64.9746Z" fill="url(#paint53_radial_600_18)"/>
<path d="M75.2755 67.1917L72.1973 66.0022L72.2511 65.8647L75.3292 67.0542L75.2755 67.1917Z" fill="url(#paint54_radial_600_18)"/>
<path d="M72.8413 65.5569L72.2157 68.8025L72.3624 68.8308L72.988 65.5852L72.8413 65.5569Z" fill="url(#paint55_radial_600_18)"/>
<path d="M71.5354 66.0096L71.437 66.122L73.924 68.2992L74.0224 68.1868L71.5354 66.0096Z" fill="url(#paint56_radial_600_18)"/>
<path d="M72.1958 65.9213L70.4979 68.7572L70.6261 68.834L72.324 65.9981L72.1958 65.9213Z" fill="url(#paint57_radial_600_18)"/>
<path d="M70.8143 65.897L70.6833 65.969L72.2757 68.8655L72.4066 68.7935L70.8143 65.897Z" fill="url(#paint58_radial_600_18)"/>
<path d="M68.8979 68.136L71.4621 66.056L71.5518 66.1696L68.9876 68.2496L68.8979 68.136Z" fill="url(#paint59_radial_600_18)"/>
<path d="M70.5298 68.8413L70.0217 65.5778L70.1652 65.5539L70.6732 68.8234L70.5298 68.8413Z" fill="url(#paint60_radial_600_18)"/>
<path d="M67.6071 67.0004L70.7271 65.9185L70.7749 66.056L67.6549 67.1378L67.6071 67.0004Z" fill="url(#paint61_radial_600_18)"/>
<path d="M68.8979 68.2197L69.5375 64.9801L69.6809 65.01L69.0414 68.2496L68.8979 68.2197Z" fill="url(#paint62_radial_600_18)"/>
<path d="M66.7823 65.4882L70.0817 65.542V65.6914L66.7764 65.6376L66.7823 65.4882Z" fill="url(#paint63_radial_600_18)"/>
<path d="M67.5771 67.0781L69.2866 64.2509L69.4121 64.3286L67.7027 67.1558L67.5771 67.0781Z" fill="url(#paint64_radial_600_18)"/>
<path d="M66.5193 63.7907L69.6094 64.9682L69.5556 65.1057L66.4714 63.9282L66.5193 63.7907Z" fill="url(#paint65_radial_600_18)"/>
<path d="M66.7283 65.554L69.2984 63.4859L69.394 63.5995L66.8179 65.6675L66.7283 65.554Z" fill="url(#paint66_radial_600_18)"/>
<path d="M66.8624 62.0955L66.7645 62.2084L69.2621 64.3734L69.36 64.2605L66.8624 62.0955Z" fill="url(#paint67_radial_600_18)"/>
<path d="M66.4475 63.8266L69.5735 62.7627L69.6213 62.9061L66.4953 63.9701L66.4475 63.8266Z" fill="url(#paint68_radial_600_18)"/>
<path d="M67.7596 60.6355L67.629 60.7082L69.2365 63.5963L69.3671 63.5236L67.7596 60.6355Z" fill="url(#paint69_radial_600_18)"/>
<path d="M66.7764 62.1172L70.0817 62.1829L70.0757 62.3324L66.7764 62.2606V62.1172Z" fill="url(#paint70_radial_600_18)"/>
<path d="M69.1013 59.559L69.6213 62.8165L69.4779 62.8404L68.9519 59.5829L69.1013 59.559Z" fill="url(#paint71_radial_600_18)"/>
<path d="M67.6773 60.6153L67.6233 60.7546L70.7049 61.9499L70.759 61.8105L67.6773 60.6153Z" fill="url(#paint72_radial_600_18)"/>
<path d="M70.727 59.0091L70.1054 62.2486L69.9619 62.2247L70.5835 58.9792L70.727 59.0091Z" fill="url(#paint73_radial_600_18)"/>
<path d="M69.0295 59.5171L71.51 61.6927L71.4143 61.8003L68.9279 59.6247L69.0295 59.5171Z" fill="url(#paint74_radial_600_18)"/>
<path d="M71.3905 68.5605V68.2676C72.5979 68.2915 73.6977 67.8253 74.5046 67.0483C75.3055 66.2712 75.8136 65.1954 75.8375 63.988C75.8614 62.7866 75.3952 61.6868 74.6181 60.8799C73.8411 60.073 72.7653 59.5709 71.5579 59.547C70.3505 59.5231 69.2567 59.9953 68.4498 60.7664C67.6429 61.5434 67.1408 62.6192 67.1169 63.8266C67.093 65.034 67.5652 66.1278 68.3362 66.9347C69.1133 67.7416 70.1891 68.2437 71.3965 68.2676V68.5605L71.3845 68.8533C68.653 68.8055 66.4774 66.5462 66.5252 63.8147C66.573 61.0831 68.8323 58.9075 71.5639 58.9553C74.2954 59.0031 76.471 61.2624 76.4172 63.994C76.3694 66.7255 74.1101 68.9011 71.3786 68.8474V68.5545L71.3905 68.5605Z" fill="#AEB8B9"/>
<path d="M71.4682 68.3572V68.0703C72.6457 68.0882 73.7096 67.634 74.4926 66.8808C75.2756 66.1277 75.7657 65.0758 75.7896 63.9043C75.8075 62.7328 75.3592 61.6688 74.6061 60.8858C73.853 60.1028 72.8011 59.6127 71.6295 59.5888C70.458 59.5649 69.3941 60.0192 68.6111 60.7783C67.8281 61.5314 67.338 62.5833 67.3141 63.7548C67.2902 64.9263 67.7504 65.9962 68.5035 66.7733C69.2567 67.5563 70.3086 68.0464 71.4801 68.0703V68.3572L71.4682 68.6441C68.8084 68.5963 66.6985 66.4027 66.7463 63.7429C66.7941 61.0891 68.9877 58.9732 71.6475 59.021C74.3013 59.0688 76.4172 61.2624 76.3694 63.9222C76.3215 66.582 74.128 68.6919 71.4682 68.6441V68.3572Z" fill="#CCD4D5"/>
<path d="M71.3724 68.3154V68.0404C72.4841 68.0583 73.4942 67.616 74.2354 66.8868C74.9765 66.1576 75.4428 65.1356 75.4667 63.9999C75.4846 62.8643 75.0602 61.8302 74.343 61.0711C73.6317 60.3121 72.6395 59.8339 71.5278 59.816C70.422 59.798 69.4119 60.2403 68.6707 60.9695C67.9296 61.7047 67.4634 62.7208 67.4454 63.8565C67.4275 64.9921 67.8519 66.0261 68.5691 66.7852C69.2804 67.5443 70.2726 68.0225 71.3843 68.0404V68.3154L71.3724 68.5963C68.856 68.5485 66.8597 66.4206 66.9015 63.8445C66.9493 61.2684 69.0234 59.2123 71.5397 59.2601C74.0561 59.3079 76.0524 61.4358 76.0046 64.0119C75.9568 66.588 73.8827 68.6441 71.3664 68.5963V68.3154H71.3724Z" fill="#E8EAEB"/>
<path d="M71.5579 59.4154C69.0774 59.3736 67.0333 61.346 66.9855 63.8206C66.9377 66.301 68.9101 68.3452 71.3906 68.393C73.8711 68.4408 75.9152 66.4684 75.963 63.9879C76.0108 61.5074 74.0384 59.4633 71.5579 59.4154ZM74.2237 66.7553C73.4945 67.4606 72.4963 67.885 71.4085 67.861C70.3147 67.8431 69.3345 67.3829 68.6351 66.6537C67.9298 65.9245 67.5055 64.9263 67.5294 63.8325C67.5473 62.7387 68.0075 61.7585 68.7368 61.0591C69.466 60.3538 70.4641 59.9295 71.5579 59.9534C72.6517 59.9713 73.632 60.4315 74.3313 61.1608C75.0366 61.89 75.461 62.8881 75.437 63.976C75.4191 65.0698 74.9589 66.05 74.2297 66.7493L74.2237 66.7553Z" fill="#8F9394"/>
<path d="M75.4309 63.976C75.4489 63.0615 75.15 62.2187 74.6479 61.5433C74.8392 61.7645 75.0066 62.0215 75.1321 62.3263C75.5326 63.2767 75.7178 64.5378 75.1978 65.4762C75.0723 65.7094 74.9169 65.9305 74.7436 66.1337C75.162 65.5181 75.413 64.7829 75.4309 63.982V63.976Z" fill="#BBC1C2"/>
<path d="M69.0475 63.9222H69.3404C69.3284 64.5199 69.5556 65.0519 69.9381 65.4464C70.3206 65.8409 70.8466 66.0859 71.4324 66.0979C72.0241 66.1098 72.556 65.8827 72.9505 65.5002C73.345 65.1176 73.5901 64.5917 73.602 64.0059C73.614 63.4142 73.3869 62.8822 73.0043 62.4877C72.6278 62.0932 72.0958 61.8482 71.5101 61.8362C70.9183 61.8243 70.3864 62.0514 69.9919 62.4339C69.5974 62.8165 69.3523 63.3424 69.3404 63.9282H69.0475L68.7546 63.9162C68.7845 62.416 70.0218 61.2206 71.522 61.2445C73.0223 61.2744 74.2177 62.5116 74.1938 64.0119C74.1639 65.5121 72.9266 66.7075 71.4264 66.6836C69.9261 66.6537 68.7307 65.4165 68.7546 63.9162H69.0475V63.9222Z" fill="#8F9394"/>
<path d="M69.161 63.8325H69.4479C69.4359 64.4063 69.6631 64.9263 70.0336 65.3029C70.4042 65.6854 70.9183 65.9245 71.498 65.9305C72.0778 65.9424 72.5978 65.7213 72.9863 65.3567C73.3689 64.9921 73.6139 64.4781 73.6259 63.9102C73.6378 63.3424 73.4107 62.8224 73.0401 62.4459C72.6695 62.0633 72.1555 61.8242 71.5757 61.8123C71.0019 61.8003 70.476 62.0215 70.0874 62.3921C69.7049 62.7567 69.4599 63.2647 69.4479 63.8385H69.161L68.8741 63.8266C68.898 62.3741 70.1114 61.2206 71.5817 61.2504C73.0521 61.2744 74.2176 62.4757 74.1937 63.9282C74.1698 65.3806 72.9564 66.5342 71.4861 66.5043C70.0157 66.4744 68.8442 65.279 68.8741 63.8266H69.161V63.8325Z" fill="#A3A6A8"/>
<path d="M69.2388 63.8923H69.5138C69.5018 64.4542 69.717 64.9563 70.0756 65.3268C70.4342 65.6974 70.9244 65.9305 71.4802 65.9425C72.0301 65.9544 72.5382 65.7392 72.9028 65.3806C73.2733 65.022 73.5065 64.5259 73.5124 63.976C73.5244 63.4201 73.3092 62.9181 72.9506 62.5475C72.592 62.1769 72.1018 61.9438 71.546 61.9319C70.9901 61.9199 70.488 62.1351 70.1234 62.4937C69.7529 62.8523 69.5197 63.3484 69.5138 63.8983H69.2388L68.9639 63.8864C68.9878 62.4758 70.1533 61.3521 71.5639 61.376C72.9745 61.3999 74.0922 62.5654 74.0683 63.976C74.0444 65.3866 72.8789 66.5103 71.4683 66.4864C70.0577 66.4625 68.94 65.2969 68.9639 63.8804H69.2388V63.8923Z" fill="#E8EAEB"/>
<path d="M69.0474 63.9222C69.0235 65.261 70.0874 66.3668 71.4322 66.3907C72.7711 66.4146 73.8769 65.3507 73.9008 64.0059C73.9247 62.667 72.8608 61.5612 71.5219 61.5373C70.183 61.5134 69.0773 62.5773 69.0534 63.9222H69.0474Z" fill="#AEB8B9"/>
<path d="M72.9625 65.7572C72.9745 65.022 71.7133 65.5958 71.4085 65.5779C70.3445 65.5181 69.9979 64.7232 70.0218 63.7668C70.0278 63.456 70.0935 63.0735 69.8485 62.8404C69.6751 62.673 69.454 62.7866 69.2627 62.9719C69.6512 62.1172 70.5179 61.5254 71.5161 61.5434C72.8549 61.5673 73.9248 62.673 73.8949 64.0119C73.883 64.7889 73.5064 65.4703 72.9326 65.9007C72.9446 65.8528 72.9565 65.805 72.9565 65.7512L72.9625 65.7572Z" fill="#CCD4D5"/>
<path d="M72.7353 62.7328C73.5422 63.2408 73.578 64.6634 72.7771 64.8965C72.8369 64.4004 73.07 64.0119 72.9445 63.4739C72.8548 63.0795 72.5022 62.8284 72.1615 62.673C71.9044 62.5594 71.6654 62.5236 71.4442 62.5535C71.5638 62.5176 71.6773 62.4638 71.761 62.3682C71.8865 62.2307 71.8387 62.0454 71.7371 61.9199C71.4681 61.5852 70.5118 62.0096 70.1113 61.9677C70.5118 61.6928 70.9959 61.5314 71.5219 61.5433C71.9702 61.5493 72.3826 61.6808 72.7412 61.902C72.544 62.1829 72.3527 62.4937 72.7412 62.7388L72.7353 62.7328Z" fill="#E8EAEB"/>
<path d="M70.4281 63.8864H70.7209C70.715 64.3048 71.0437 64.6514 71.4621 64.6574C71.8805 64.6634 72.2212 64.3346 72.2272 63.9162C72.2331 63.5038 71.9044 63.1572 71.486 63.1512C71.0676 63.1452 70.7269 63.4739 70.7209 63.8923H70.4281L70.1352 63.8804C70.1471 63.1392 70.7568 62.5535 71.498 62.5654C72.2391 62.5774 72.8249 63.193 72.8129 63.9282C72.801 64.6694 72.1853 65.2551 71.4501 65.2432C70.709 65.2312 70.1232 64.6215 70.1352 63.8804H70.4281V63.8864Z" fill="#8F9394"/>
<path d="M70.4281 63.8864H70.7209C70.715 64.3048 71.0437 64.6514 71.4621 64.6574C71.8805 64.6634 72.2212 64.3346 72.2272 63.9162C72.2331 63.5038 71.9044 63.1572 71.486 63.1512C71.0676 63.1452 70.7269 63.4739 70.7209 63.8923H70.4281L70.1352 63.8804C70.1471 63.1392 70.7568 62.5535 71.498 62.5654C72.2391 62.5774 72.8249 63.193 72.8129 63.9282C72.801 64.6694 72.1853 65.2551 71.4501 65.2432C70.709 65.2312 70.1232 64.6215 70.1352 63.8804H70.4281V63.8864Z" fill="#8F9394"/>
<path d="M70.4281 63.8864H70.7209C70.715 64.3048 71.0437 64.6514 71.4621 64.6574C71.8805 64.6634 72.2212 64.3346 72.2272 63.9162C72.2331 63.5038 71.9044 63.1572 71.486 63.1512C71.0676 63.1452 70.7269 63.4739 70.7209 63.8923H70.4281L70.1352 63.8804C70.1471 63.1392 70.7568 62.5535 71.498 62.5654C72.2391 62.5774 72.8249 63.193 72.8129 63.9282C72.801 64.6694 72.1853 65.2551 71.4501 65.2432C70.709 65.2312 70.1232 64.6215 70.1352 63.8804H70.4281V63.8864Z" fill="#8F9394"/>
<path d="M70.482 63.8206H70.7689C70.7689 64.2211 71.0857 64.5498 71.4921 64.5558C71.8986 64.5618 72.2333 64.251 72.2393 63.8505C72.2453 63.456 71.9225 63.1273 71.5161 63.1213C71.1096 63.1153 70.7749 63.4321 70.7629 63.8206H70.476L70.1891 63.8087C70.2011 63.1034 70.7988 62.5475 71.522 62.5595C72.2453 62.5714 72.825 63.1512 72.8071 63.8565C72.7951 64.5618 72.1974 65.1176 71.4742 65.1057C70.751 65.0937 70.1712 64.514 70.1832 63.8087H70.4701L70.482 63.8206Z" fill="#CCD4D5"/>
<path d="M70.4761 63.8445H70.745C70.7391 64.2211 71.0439 64.5259 71.4324 64.5319C71.8149 64.5379 72.1317 64.245 72.1437 63.8744C72.1437 63.5039 71.8448 63.199 71.4563 63.1871C71.0738 63.1811 70.757 63.474 70.745 63.8445H70.4761L70.2011 63.8326C70.2131 63.1691 70.7809 62.6432 71.4623 62.6611C72.1496 62.673 72.6936 63.217 72.6816 63.8804C72.6697 64.5439 72.1018 65.0698 71.4204 65.0519C70.7331 65.04 70.1892 64.4901 70.2011 63.8326H70.4761V63.8445Z" fill="#E8EAEB"/>
<path d="M72.1376 63.3186C72.0599 63.3604 72.048 63.4501 72.0779 63.5218C72.1556 63.6891 72.1436 63.982 72.1018 64.1613C72.0779 64.2629 72.0898 64.4662 72.0779 64.245C72.0719 64.1553 72.0659 64.0657 72.0599 63.976C72.048 63.8326 72.0599 63.6413 71.9583 63.5278C71.8866 63.4441 71.8209 63.3843 71.7192 63.3365C71.4861 63.2289 71.6595 63.0197 71.7969 62.9181C71.9942 62.9838 72.1675 63.1034 72.293 63.2648C72.2452 63.2767 72.1914 63.2946 72.1376 63.3245V63.3186Z" fill="#E8EAEB"/>
<path d="M71.5757 58.4591C68.5692 58.4053 66.0887 60.7962 66.029 63.8026C65.9752 66.8091 68.366 69.2896 71.3725 69.3494C74.3789 69.4032 76.8594 67.0123 76.9192 64.0059C76.973 60.9994 74.5822 58.5189 71.5757 58.4591ZM71.3844 68.8174C68.6708 68.7696 66.5071 66.5282 66.5609 63.8146C66.6087 61.101 68.8501 58.9373 71.5637 58.9911C74.2773 59.0389 76.441 61.2803 76.3872 63.9939C76.3394 66.7075 74.098 68.8652 71.3844 68.8174Z" fill="url(#paint75_radial_600_18)"/>
<path d="M33.2388 47.551C33.0953 47.551 33.0535 47.5091 33.0535 47.5091H19.3241C19.3241 47.5091 19.3182 47.545 19.3122 47.545C18.9237 47.4673 18.6726 47.3179 18.565 47.0728C18.3917 46.6783 18.6547 46.236 18.6667 46.2181C18.6965 46.1464 22.0975 38.6989 23.0299 37.0373C23.8249 35.6148 25.092 35.5729 25.4626 35.5729C25.5522 35.5729 25.606 35.6447 25.612 35.6447H34.0636C34.6254 35.6447 35.008 35.7283 35.2829 36.0272C35.6415 36.4097 35.5758 36.8281 35.5758 36.8461V46.2779C35.3128 47.4673 33.9201 47.557 33.2388 47.557V47.551ZM19.3301 47.5091H33.0535C33.0535 47.5091 33.1611 47.4912 33.2985 47.4912C33.944 47.4912 35.3128 47.3537 35.5758 46.2779V36.8461C35.5758 36.8461 35.5758 36.3918 35.253 36.0511C35.002 35.7821 34.5836 35.6447 34.0636 35.6447H25.6001C25.6001 35.6447 25.5403 35.6387 25.4626 35.6387C25.0083 35.6387 23.8787 35.7821 23.1375 37.109C22.2111 38.7647 18.8101 46.2121 18.7742 46.2898C18.7742 46.3018 18.5292 46.7381 18.6786 47.0728C18.7683 47.276 18.9894 47.2521 19.3301 47.5151V47.5091Z" fill="#131416"/>
<path d="M33.5316 36.4337H25.8033C25.8033 36.4337 24.3628 36.1348 23.5021 37.6769C22.6414 39.213 19.5154 45.9551 19.5154 45.9551C19.5154 45.9551 18.9655 46.9832 20.0653 46.9832H32.6052C32.6052 46.9832 34.7749 47.2641 34.7749 45.9731V37.3362C34.7749 37.3362 34.996 36.4396 33.5257 36.4396L33.5316 36.4337Z" fill="#5D5E61"/>
<path d="M33.5316 36.4337H25.8033C25.8033 36.4337 24.3628 36.1348 23.5021 37.6769C22.6414 39.213 19.5154 45.9551 19.5154 45.9551C19.5154 45.9551 18.9655 46.9832 20.0653 46.9832H32.6052C32.6052 46.9832 34.7749 47.2641 34.7749 45.9731V37.3362C34.7749 37.3362 34.996 36.4396 33.5257 36.4396L33.5316 36.4337Z" fill="white"/>
<path d="M92.6809 34.4194H23.7892C23.6756 34.4194 23.5859 34.509 23.5859 34.6226C23.5859 34.7362 23.6756 34.8258 23.7892 34.8258H38.1939V62.7746H38.5944V34.8258H92.6809C92.7945 34.8258 92.8841 34.7362 92.8841 34.6226C92.8841 34.509 92.7945 34.4194 92.6809 34.4194Z" fill="url(#paint76_linear_600_18)"/>
<path d="M12.3071 61.7465H6.56315C6.56315 61.7465 6.09096 61.7166 6.09096 62.7208C6.09096 62.7208 5.98935 63.9998 6.12683 64.1672C6.25832 64.3346 7.80638 66.4863 7.80638 66.4863C7.80638 66.4863 8.1411 67.0242 8.91214 67.0242H12.7076C12.7076 67.0242 13.1618 67.1259 13.1618 66.2173V62.6251C13.1618 62.6251 13.377 61.7465 12.3071 61.7465Z" fill="#95979A"/>
<path d="M12.7434 67.1139H12.7015H8.91805C8.1231 67.1139 7.77045 66.5521 7.7585 66.5282C7.74655 66.5103 6.21642 64.3645 6.08492 64.1971C5.94147 64.0178 6.01917 62.9718 6.0371 62.7507C6.0371 61.7047 6.54515 61.7465 6.56906 61.7465H12.313C12.3668 61.7465 12.4266 61.6808 12.4864 61.6808C12.7613 61.6808 13.0004 61.7406 13.1558 61.9019C13.4367 62.1948 13.4367 62.6013 13.4367 62.6252V66.2174C13.4367 66.57 13.3291 66.827 13.1498 66.9765C13.0004 67.102 12.8151 67.1139 12.7494 67.1139H12.7434ZM12.4804 61.7525C12.4266 61.7525 12.3728 61.7525 12.319 61.7645H6.56309C6.56309 61.7645 6.15664 61.7824 6.15664 62.7029C6.10883 63.3305 6.10285 64.0298 6.17458 64.1194C6.30607 64.2868 7.79436 66.3847 7.85413 66.4744C7.87206 66.4983 8.18287 67.0243 8.91207 67.0243H12.7075C12.7075 67.0243 12.7254 67.0123 12.7374 67.0123C12.7912 67.0123 12.8689 66.9944 12.9884 66.8928C13.1379 66.7673 13.1618 66.5342 13.1618 66.2234V62.6311C13.1618 62.6311 13.2275 62.2247 12.9884 61.9737C12.851 61.8362 12.7195 61.7645 12.4744 61.7645L12.4804 61.7525Z" fill="#58595B"/>
<g style="mix-blend-mode:multiply">
<path d="M12.3071 61.6628H11.9963C12.1756 61.7346 12.3251 61.8362 12.3848 62.0992C12.4625 62.4518 12.4386 62.8224 12.4386 63.181C12.4386 63.5755 12.4147 64.3226 11.8708 64.1851H6.15674C6.4018 64.5199 7.80641 66.5162 7.80641 66.5162C7.80641 66.5162 8.14113 67.0063 8.91217 67.1079H12.7076C12.7076 67.1079 13.3651 67.1259 13.3651 66.2174V62.6251C13.3651 62.6251 13.383 61.5672 12.3071 61.6688V61.6628Z" fill="#95979A"/>
</g>
<g style="mix-blend-mode:multiply">
<path d="M12.6417 61.6748C12.8688 61.9856 12.9585 62.3442 12.9884 62.7567C13.0302 63.3006 13.084 63.8445 13.0661 64.3944C13.0482 64.8845 13.0003 65.4224 12.7433 65.8528C12.5281 66.2174 12.1456 66.4086 11.7392 66.4863C11.255 66.576 10.7709 66.5521 10.2808 66.5282C9.70099 66.4983 9.10328 66.4445 8.55339 66.2413C7.99155 66.0321 7.52534 65.6854 7.11292 65.2551C6.832 64.9682 6.569 64.6574 6.2821 64.3764C6.71245 64.9742 7.7943 66.5222 7.7943 66.5222C7.7943 66.5222 8.12902 67.0123 8.90006 67.1139H12.6955C12.6955 67.1139 13.353 67.1319 13.353 66.2234V62.6311C13.353 62.6311 13.3649 61.8123 12.6357 61.6868L12.6417 61.6748Z" fill="#95979A"/>
</g>
<g style="mix-blend-mode:screen">
<path d="M6.25224 63.2707C6.25224 63.2707 6.24028 62.0095 6.64074 62.0095H11.7033L7.19661 62.3921C7.19661 62.3921 6.34189 62.4698 6.25224 63.2767V63.2707Z" fill="#95979A"/>
</g>
<path d="M36.1616 49.0871H36.3051C36.7772 49.0871 37.1538 49.4696 37.1538 49.9358V52.7152C37.1538 53.1874 36.7713 53.5639 36.3051 53.5639H36.1616C35.6894 53.5639 35.3129 53.1814 35.3129 52.7152V49.9358C35.3129 49.4637 35.6954 49.0871 36.1616 49.0871Z" fill="white"/>
<path d="M8.54757 49.0931C8.54757 49.0931 6.70066 50.9759 6.70066 53.1874L6.66479 56.3791C6.66479 56.3791 6.8979 56.6481 7.53745 56.146C8.17699 55.644 10.6575 52.5538 10.7591 50.7069C10.8607 48.86 10.3228 48.4595 9.85057 48.5253C9.37839 48.591 8.87631 48.7285 8.5416 49.0991L8.54757 49.0931Z" fill="url(#paint77_linear_600_18)"/>
<path d="M6.87394 56.5106C6.70061 56.5106 6.62291 56.4269 6.61693 56.415L6.599 56.397L6.63486 53.1814C6.63486 50.9639 8.48178 49.0632 8.49971 49.0452C8.87029 48.6388 9.44408 48.5133 9.84455 48.4535C10.0597 48.4236 10.2749 48.4953 10.4303 48.6627C10.7471 48.9974 10.8786 49.6788 10.8188 50.7009C10.7172 52.5717 8.1889 55.6977 7.57326 56.1878C7.30429 56.403 7.07119 56.5106 6.87394 56.5106ZM6.72452 56.3492C6.72452 56.3492 6.79624 56.3851 6.87394 56.3851C6.98751 56.3851 7.19073 56.3313 7.49556 56.0922C8.10522 55.614 10.5977 52.5359 10.6933 50.7009C10.759 49.4696 10.5379 48.9616 10.3347 48.7524C10.2032 48.6149 10.0298 48.5551 9.8565 48.585C9.47397 48.6388 8.93006 48.7583 8.58339 49.1349C8.56546 49.1528 6.7544 51.0237 6.7544 53.1874L6.71854 56.3492H6.72452Z" fill="#651E0B"/>
<g style="mix-blend-mode:multiply">
<path d="M9.85655 48.5193C9.38436 48.585 8.88229 48.7225 8.54757 49.0931C8.54757 49.0931 6.70066 50.9759 6.70066 53.1874L6.66479 56.3791C6.66479 56.3791 6.8979 56.6481 7.53745 56.146C8.17699 55.644 10.6575 52.5538 10.7591 50.7069C10.8607 48.86 10.3228 48.4595 9.85057 48.5253L9.85655 48.5193ZM10.1614 50.8623C10.0837 52.3028 8.14711 54.7115 7.65101 55.1C7.15491 55.4945 6.96963 55.2853 6.96963 55.2853L6.99353 52.7989C6.99353 51.0715 8.43401 49.6071 8.43401 49.6071C8.697 49.3202 9.08551 49.2126 9.45609 49.1648C9.82069 49.111 10.2391 49.4278 10.1614 50.8683V50.8623Z" fill="url(#paint78_linear_600_18)"/>
</g>
<g style="mix-blend-mode:screen">
<path d="M7.93792 51.8366C7.97378 51.7649 8.00367 51.6991 8.03953 51.6453C8.47585 50.9759 9.71909 49.4637 9.71909 49.4637L8.97793 49.631C8.97793 49.631 7.88412 50.5455 7.50757 51.5437C7.64504 51.6513 7.78849 51.7469 7.93194 51.8426L7.93792 51.8366Z" fill="url(#paint79_linear_600_18)"/>
</g>
<g style="mix-blend-mode:screen">
<path d="M7.36403 52.255C7.25046 53.3309 7.33414 54.5263 7.33414 54.5263C7.33414 54.5263 7.48357 53.3129 7.73461 52.4104C7.60909 52.3626 7.48357 52.3088 7.36403 52.255Z" fill="url(#paint80_linear_600_18)"/>
</g>
<path opacity="0.5" d="M80.3979 53.5699H40.0586V54.0959H80.3979V53.5699Z" fill="#5D5E61"/>
<path opacity="0.5" d="M30.555 62.8464C30.5072 62.8464 30.4654 62.8165 30.4594 62.7687C30.4474 62.7149 29.0966 57.0725 28.6962 55.7516C28.3256 54.5084 26.5444 54.8252 26.5265 54.8252C26.5265 54.8252 26.5145 54.8909 26.5086 54.8909H18.4515C18.3977 54.8909 18.1765 54.7235 18.1765 54.6638V47.6108C18.1765 47.557 18.2542 47.5092 18.308 47.5092C18.3618 47.5092 18.4395 47.5511 18.4395 47.6108V54.6219H26.5026C26.64 54.6219 28.481 54.3589 28.8874 55.7217C29.2879 57.0546 30.6387 62.679 30.6507 62.7388C30.6626 62.7926 30.6327 62.8404 30.5789 62.8524C30.573 62.8524 30.561 62.8524 30.555 62.8524V62.8464Z" fill="#5D5E61"/>
<path d="M39.5506 32.7398C39.5506 33.1821 39.1919 33.5288 38.7437 33.5288H37.2315C36.7892 33.5288 36.4246 33.1821 36.4246 32.7398C36.4246 32.2975 36.7832 31.9509 37.2315 31.9509H38.7437C39.186 31.9509 39.5506 32.2975 39.5506 32.7398Z" fill="url(#paint81_linear_600_18)"/>
<path d="M38.7437 33.5348H37.2315C36.7534 33.5348 36.3649 33.0925 36.3649 32.6143C36.3649 32.1362 36.7534 31.6938 37.2315 31.6938H38.7437C39.2219 31.6938 39.6104 32.1362 39.6104 32.6143C39.6104 33.0925 39.2219 33.5348 38.7437 33.5348ZM37.2315 31.9509C36.8191 31.9509 36.4904 32.3334 36.4904 32.7398C36.4904 33.1463 36.8251 33.5288 37.2315 33.5288H38.7437C39.1562 33.5288 39.4849 33.1463 39.4849 32.7398C39.4849 32.3334 39.1502 31.9509 38.7437 31.9509H37.2315Z" fill="#651E0B"/>
<path d="M39.5506 32.7398C39.5506 33.1821 39.1919 33.5288 38.7437 33.5288H37.2315C36.7892 33.5288 36.4246 33.1821 36.4246 32.7398C36.4246 32.2975 36.7832 31.9509 37.2315 31.9509H38.7437C39.186 31.9509 39.5506 32.2975 39.5506 32.7398Z" fill="url(#paint82_linear_600_18)"/>
<path d="M38.7437 33.5348H37.2315C36.7534 33.5348 36.3649 33.0925 36.3649 32.6143C36.3649 32.1362 36.7534 31.6938 37.2315 31.6938H38.7437C39.2219 31.6938 39.6104 32.1362 39.6104 32.6143C39.6104 33.0925 39.2219 33.5348 38.7437 33.5348ZM37.2315 31.9509C36.8191 31.9509 36.4904 32.3334 36.4904 32.7398C36.4904 33.1463 36.8251 33.5288 37.2315 33.5288H38.7437C39.1562 33.5288 39.4849 33.1463 39.4849 32.7398C39.4849 32.3334 39.1502 31.9509 38.7437 31.9509H37.2315Z" fill="url(#paint83_linear_600_18)"/>
<path d="M39.2636 32.6203C39.2636 32.973 39.0843 33.2718 38.7017 33.2718H37.3808C37.0042 33.2718 36.6217 32.9789 36.6217 32.6203V32.5964C36.6217 32.2438 37.0042 32.2139 37.3808 32.2139H38.7017C39.0783 32.2139 39.2636 32.2378 39.2636 32.5964V32.6203Z" fill="white"/>
<path d="M89.286 32.4948C89.286 32.9371 88.9273 33.2838 88.4791 33.2838H86.9669C86.5246 33.2838 86.16 32.9371 86.16 32.4948C86.16 32.0525 86.5186 31.7058 86.9669 31.7058H88.4791C88.9214 31.7058 89.286 32.0525 89.286 32.4948Z" fill="url(#paint84_linear_600_18)"/>
<path d="M89.2859 32.4111C89.2859 32.8534 88.9273 33.2001 88.479 33.2001H86.9668C86.5245 33.2001 86.1599 32.8534 86.1599 32.4111C86.1599 31.9688 86.5185 31.6221 86.9668 31.6221H88.479C88.9213 31.6221 89.2859 31.9688 89.2859 32.4111Z" fill="url(#paint85_linear_600_18)"/>
<path d="M88.467 33.2479H86.9548C86.4766 33.2479 86.0881 32.8056 86.0881 32.3275C86.0881 31.8493 86.4766 31.407 86.9548 31.407H88.467C88.9452 31.407 89.3337 31.8493 89.3337 32.3275C89.3337 32.8056 88.9452 33.2479 88.467 33.2479ZM86.9548 31.664C86.5424 31.664 86.2137 32.0465 86.2137 32.453C86.2137 32.8594 86.5484 33.2419 86.9548 33.2419H88.467C88.8794 33.2419 89.2082 32.8594 89.2082 32.453C89.2082 32.0465 88.8735 31.664 88.467 31.664H86.9548Z" fill="url(#paint86_linear_600_18)"/>
<path d="M89.0228 32.2378C89.0228 32.5904 88.9033 32.8893 88.5267 32.8893H87.2058C86.8293 32.8893 86.387 32.5964 86.387 32.2378V32.2139C86.387 31.8612 86.8293 31.8314 87.2058 31.8314H88.5267C88.9033 31.8314 89.0228 31.8553 89.0228 32.2139V32.2378Z" fill="white"/>
<path d="M20.8543 44.2636C20.8543 44.2636 19.2644 44.6401 19.0672 45.2737C18.8699 45.9133 18.9775 48.2264 18.9775 48.2264C18.9775 48.2264 19.0612 48.8241 19.6768 48.8241H20.8902C20.8902 48.8241 21.2428 48.8839 21.2847 48.5133C21.3265 48.1367 21.2847 45.1303 21.2847 45.1303C21.2847 45.1303 21.3265 44.0604 20.8543 44.2576V44.2636Z" fill="#27292B"/>
<path d="M20.8065 48.8361C20.8065 48.8361 20.8961 48.8242 20.8782 48.8242H19.6768C19.0134 48.8242 18.9118 48.2085 18.9118 48.2026C18.9118 48.101 18.8042 45.8954 19.0074 45.2559C19.2166 44.5924 20.7766 44.2159 20.8424 44.2039C20.8782 44.186 20.926 44.18 20.9679 44.18C21.0396 44.18 21.1053 44.2099 21.1591 44.2637C21.3743 44.4848 21.3504 45.0945 21.3444 45.1244C21.3444 45.2439 21.3026 48.1189 21.2548 48.4954C21.2309 48.7166 21.0695 48.8421 20.8065 48.8421V48.8361ZM20.9619 44.2995C20.9619 44.2995 20.9081 44.3055 20.8722 44.3175C20.8483 44.3234 19.3062 44.694 19.121 45.2917C18.9297 45.9133 19.0313 48.2324 19.0313 48.2564C19.0313 48.2683 19.115 48.8242 19.6708 48.8242H20.8842C20.8842 48.8242 20.8065 48.7644 20.8125 48.7644L20.8005 48.7166C21.0635 48.7166 21.1113 48.6329 21.1292 48.4775C21.1711 48.1129 21.1711 45.1483 21.1711 45.1184C21.1771 44.951 21.183 44.4968 21.0396 44.3474C21.0097 44.3175 20.9978 44.2995 20.9559 44.2995H20.9619Z" fill="#131416"/>
<path d="M19.3243 47.4614L17.6985 48.7943C17.6985 48.7943 17.4235 49.1708 17.6985 49.374C17.6985 49.374 17.9017 49.5235 18.099 49.4517C18.3022 49.374 20.0893 48.6209 20.0893 48.6209L19.3243 47.4614Z" fill="#27292B"/>
<path d="M17.9793 49.5354C17.806 49.5354 17.6626 49.4278 17.6566 49.4278C17.5789 49.368 17.5251 49.2903 17.5131 49.2007C17.4773 48.9915 17.6386 48.7763 17.6446 48.7643C17.6446 48.7643 17.6506 48.7583 17.6566 48.7524L19.2823 47.4195C19.2823 47.4195 19.3122 47.4016 19.3302 47.4075C19.3481 47.4075 19.36 47.4195 19.372 47.4374L20.1371 48.597C20.1371 48.597 20.149 48.6328 20.143 48.6508C20.143 48.6687 20.1251 48.6806 20.1072 48.6926C20.0355 48.7225 18.3141 49.4517 18.1168 49.5234C18.075 49.5413 18.0272 49.5473 17.9734 49.5473L17.9793 49.5354ZM17.7403 48.842C17.7403 48.842 17.6745 48.9436 17.6506 49.0333C17.6147 49.1648 17.6386 49.2604 17.7343 49.3262C17.7343 49.3262 17.8478 49.4098 17.9793 49.4098C18.0152 49.4098 18.0451 49.4098 18.075 49.3919C18.2483 49.3262 19.6649 48.7285 19.9936 48.591L19.3122 47.551L17.7462 48.8361L17.7403 48.842Z" fill="#131416"/>
<path d="M20.8543 44.2636C20.8543 44.2636 19.2644 44.6401 19.0672 45.2737C18.8699 45.9133 18.9775 48.2264 18.9775 48.2264C18.9775 48.2264 19.0612 48.8241 19.6768 48.8241H20.8902C20.8902 48.8241 21.2428 48.8839 21.2847 48.5133C21.3265 48.1367 21.2847 45.1303 21.2847 45.1303C21.2847 45.1303 21.3265 44.0604 20.8543 44.2576V44.2636Z" fill="#27292B"/>
<path d="M20.8065 48.8361C20.8065 48.8361 20.8961 48.8242 20.8782 48.8242H19.6768C19.0134 48.8242 18.9118 48.2085 18.9118 48.2026C18.9118 48.101 18.8042 45.8954 19.0074 45.2559C19.2166 44.5924 20.7766 44.2159 20.8424 44.2039C20.8782 44.186 20.926 44.18 20.9679 44.18C21.0396 44.18 21.1053 44.2099 21.1591 44.2637C21.3743 44.4848 21.3504 45.0945 21.3444 45.1244C21.3444 45.2439 21.3026 48.1189 21.2548 48.4954C21.2309 48.7166 21.0695 48.8421 20.8065 48.8421V48.8361ZM20.9619 44.2995C20.9619 44.2995 20.9081 44.3055 20.8722 44.3175C20.8483 44.3234 19.3062 44.694 19.121 45.2917C18.9297 45.9133 19.0313 48.2324 19.0313 48.2564C19.0313 48.2683 19.115 48.8242 19.6708 48.8242H20.8842C20.8842 48.8242 20.8065 48.7644 20.8125 48.7644L20.8005 48.7166C21.0635 48.7166 21.1113 48.6329 21.1292 48.4775C21.1711 48.1129 21.1711 45.1483 21.1711 45.1184C21.1771 44.951 21.183 44.4968 21.0396 44.3474C21.0097 44.3175 20.9978 44.2995 20.9559 44.2995H20.9619Z" fill="#131416"/>
<path d="M20.5138 44.6581C20.5138 44.6581 19.3782 44.951 19.2347 45.459C19.0913 45.9611 19.169 47.808 19.169 47.808C19.169 47.808 19.2287 48.2981 19.671 48.2981H20.5377C20.5377 48.2981 20.7887 48.328 20.8186 48.0352C20.8485 47.7423 20.8186 45.3574 20.8186 45.3574C20.8186 45.3574 20.8485 44.5027 20.5138 44.6581Z" fill="#47484A"/>
<g style="mix-blend-mode:screen">
<path d="M19.9099 44.9988C19.9099 44.9988 19.3063 45.2499 19.3302 45.752C19.3541 46.254 19.3302 47.037 19.3302 47.037C19.3302 47.037 19.4557 45.477 19.9099 44.9988Z" fill="#E6E7E8"/>
</g>
<g style="mix-blend-mode:screen">
<path d="M25.5522 32.8773C25.5522 32.8773 27.1123 29.8469 30.4893 29.3149H74.1518L30.5909 30.2055C30.5909 30.2055 27.9192 30.8092 27.1182 32.7757L25.5582 32.8773H25.5522Z" fill="white"/>
</g>
<g style="mix-blend-mode:screen" opacity="0.9">
<path d="M7.62708 57.3832V61.2205H11.6018L8.55352 60.1088L7.62708 57.3832Z" fill="#00689A"/>
</g>
<g style="mix-blend-mode:screen" opacity="0.9">
<path d="M29.9574 58.3575L31.0392 62.2725H36.6278V54.5621L36.1257 61.7465H31.5413L29.9574 58.3575Z" fill="#00689A"/>
</g>
<g style="mix-blend-mode:screen" opacity="0.9">
<path d="M61.3071 62.2725H40.5846V54.5621L41.0867 61.7465H45.6711L61.3071 62.2725Z" fill="#00689A"/>
</g>
<defs>
<linearGradient id="paint0_linear_600_18" x1="50.4431" y1="28.2549" x2="50.4431" y2="63.3365" gradientUnits="userSpaceOnUse">
<stop stop-color="#0C2464"/>
<stop offset="1" stop-color="#0C3F85"/>
</linearGradient>
<linearGradient id="paint1_linear_600_18" x1="58.5219" y1="28.1249" x2="58.5219" y2="34.6704" gradientUnits="userSpaceOnUse">
<stop stop-color="#0C2A6C"/>
<stop offset="1" stop-color="#0C2A6C"/>
</linearGradient>
<radialGradient id="paint2_radial_600_18" cx="0" cy="0" r="1" gradientUnits="userSpaceOnUse" gradientTransform="translate(-11053.3 1154.25) rotate(153.7) scale(1317.86 1317.86)">
<stop stop-color="#5E6769"/>
<stop offset="0.95" stop-color="#8F9394"/>
<stop offset="1" stop-color="#8F9394"/>
</radialGradient>
<radialGradient id="paint3_radial_600_18" cx="0" cy="0" r="1" gradientUnits="userSpaceOnUse" gradientTransform="translate(22.2372 59.9259) rotate(153.7) scale(1.18346)">
<stop stop-color="#5E6769"/>
<stop offset="0.95" stop-color="#8F9394"/>
<stop offset="1" stop-color="#8F9394"/>
</radialGradient>
<radialGradient id="paint4_radial_600_18" cx="0" cy="0" r="1" gradientUnits="userSpaceOnUse" gradientTransform="translate(23.8053 60.9481) rotate(153.7) scale(1.18466)">
<stop stop-color="#5E6769"/>
<stop offset="0.95" stop-color="#8F9394"/>
<stop offset="1" stop-color="#8F9394"/>
</radialGradient>
<radialGradient id="paint5_radial_600_18" cx="0" cy="0" r="1" gradientUnits="userSpaceOnUse" gradientTransform="translate(21.7983 60.0905) rotate(153.7) scale(1.18167)">
<stop stop-color="#5E6769"/>
<stop offset="0.95" stop-color="#8F9394"/>
<stop offset="1" stop-color="#8F9394"/>
</radialGradient>
<radialGradient id="paint6_radial_600_18" cx="0" cy="0" r="1" gradientUnits="userSpaceOnUse" gradientTransform="translate(24.0825 62.0165) rotate(153.7) scale(1.17987)">
<stop stop-color="#5E6769"/>
<stop offset="0.95" stop-color="#8F9394"/>
<stop offset="1" stop-color="#8F9394"/>
</radialGradient>
<radialGradient id="paint7_radial_600_18" cx="0" cy="0" r="1" gradientUnits="userSpaceOnUse" gradientTransform="translate(24.5313 62.2983) rotate(153.7) scale(1.18346)">
<stop stop-color="#5E6769"/>
<stop offset="0.95" stop-color="#8F9394"/>
<stop offset="1" stop-color="#8F9394"/>
</radialGradient>
<radialGradient id="paint8_radial_600_18" cx="0" cy="0" r="1" gradientUnits="userSpaceOnUse" gradientTransform="translate(-11045.3 1164.54) rotate(153.7) scale(1317.14 1317.14)">
<stop stop-color="#5E6769"/>
<stop offset="0.95" stop-color="#8F9394"/>
<stop offset="1" stop-color="#8F9394"/>
</radialGradient>
<radialGradient id="paint9_radial_600_18" cx="0" cy="0" r="1" gradientUnits="userSpaceOnUse" gradientTransform="translate(-11075.2 1172.51) rotate(153.7) scale(1320.75 1320.75)">
<stop stop-color="#5E6769"/>
<stop offset="0.95" stop-color="#8F9394"/>
<stop offset="1" stop-color="#8F9394"/>
</radialGradient>
<radialGradient id="paint10_radial_600_18" cx="0" cy="0" r="1" gradientUnits="userSpaceOnUse" gradientTransform="translate(24.5915 63.4526) rotate(153.7) scale(1.18226)">
<stop stop-color="#5E6769"/>
<stop offset="0.95" stop-color="#8F9394"/>
<stop offset="1" stop-color="#8F9394"/>
</radialGradient>
<radialGradient id="paint11_radial_600_18" cx="0" cy="0" r="1" gradientUnits="userSpaceOnUse" gradientTransform="translate(24.4613 63.0738) rotate(153.7) scale(1.18585)">
<stop stop-color="#5E6769"/>
<stop offset="0.95" stop-color="#8F9394"/>
<stop offset="1" stop-color="#8F9394"/>
</radialGradient>
<radialGradient id="paint12_radial_600_18" cx="0" cy="0" r="1" gradientUnits="userSpaceOnUse" gradientTransform="translate(25.4711 64.4528) rotate(153.7) scale(1.18376)">
<stop stop-color="#5E6769"/>
<stop offset="0.95" stop-color="#8F9394"/>
<stop offset="1" stop-color="#8F9394"/>
</radialGradient>
<radialGradient id="paint13_radial_600_18" cx="0" cy="0" r="1" gradientUnits="userSpaceOnUse" gradientTransform="translate(25.1479 64.8958) rotate(153.7) scale(1.19213)">
<stop stop-color="#5E6769"/>
<stop offset="0.95" stop-color="#8F9394"/>
<stop offset="1" stop-color="#8F9394"/>
</radialGradient>
<radialGradient id="paint14_radial_600_18" cx="0" cy="0" r="1" gradientUnits="userSpaceOnUse" gradientTransform="translate(24.9282 66.5776) rotate(153.7) scale(1.18436)">
<stop stop-color="#5E6769"/>
<stop offset="0.95" stop-color="#8F9394"/>
<stop offset="1" stop-color="#8F9394"/>
</radialGradient>
<radialGradient id="paint15_radial_600_18" cx="0" cy="0" r="1" gradientUnits="userSpaceOnUse" gradientTransform="translate(-11049 1155.58) rotate(153.7) scale(1317.43 1317.43)">
<stop stop-color="#5E6769"/>
<stop offset="0.95" stop-color="#8F9394"/>
<stop offset="1" stop-color="#8F9394"/>
</radialGradient>
<radialGradient id="paint16_radial_600_18" cx="0" cy="0" r="1" gradientUnits="userSpaceOnUse" gradientTransform="translate(24.2243 67.4077) rotate(153.7) scale(1.18197)">
<stop stop-color="#5E6769"/>
<stop offset="0.95" stop-color="#8F9394"/>
<stop offset="1" stop-color="#8F9394"/>
</radialGradient>
<radialGradient id="paint17_radial_600_18" cx="0" cy="0" r="1" gradientUnits="userSpaceOnUse" gradientTransform="translate(23.2618 66.3774) rotate(153.7) scale(1.18256)">
<stop stop-color="#5E6769"/>
<stop offset="0.95" stop-color="#8F9394"/>
<stop offset="1" stop-color="#8F9394"/>
</radialGradient>
<radialGradient id="paint18_radial_600_18" cx="0" cy="0" r="1" gradientUnits="userSpaceOnUse" gradientTransform="translate(22.5604 67.5245) rotate(153.7) scale(1.18256)">
<stop stop-color="#5E6769"/>
<stop offset="0.95" stop-color="#8F9394"/>
<stop offset="1" stop-color="#8F9394"/>
</radialGradient>
<radialGradient id="paint19_radial_600_18" cx="0" cy="0" r="1" gradientUnits="userSpaceOnUse" gradientTransform="translate(23.8361 68.3526) rotate(153.7) scale(1.18376)">
<stop stop-color="#5E6769"/>
<stop offset="0.95" stop-color="#8F9394"/>
<stop offset="1" stop-color="#8F9394"/>
</radialGradient>
<radialGradient id="paint20_radial_600_18" cx="0" cy="0" r="1" gradientUnits="userSpaceOnUse" gradientTransform="translate(-11044.4 1173.38) rotate(153.7) scale(1316.95 1316.95)">
<stop stop-color="#5E6769"/>
<stop offset="0.95" stop-color="#8F9394"/>
<stop offset="1" stop-color="#8F9394"/>
</radialGradient>
<radialGradient id="paint21_radial_600_18" cx="0" cy="0" r="1" gradientUnits="userSpaceOnUse" gradientTransform="translate(20.8767 66.5445) rotate(153.7) scale(1.17599)">
<stop stop-color="#5E6769"/>
<stop offset="0.95" stop-color="#8F9394"/>
<stop offset="1" stop-color="#8F9394"/>
</radialGradient>
<radialGradient id="paint22_radial_600_18" cx="0" cy="0" r="1" gradientUnits="userSpaceOnUse" gradientTransform="translate(19.0864 66.3626) rotate(153.7) scale(1.18256)">
<stop stop-color="#5E6769"/>
<stop offset="0.95" stop-color="#8F9394"/>
<stop offset="1" stop-color="#8F9394"/>
</radialGradient>
<radialGradient id="paint23_radial_600_18" cx="0" cy="0" r="1" gradientUnits="userSpaceOnUse" gradientTransform="translate(20.6783 67.9874) rotate(153.7) scale(1.18137)">
<stop stop-color="#5E6769"/>
<stop offset="0.95" stop-color="#8F9394"/>
<stop offset="1" stop-color="#8F9394"/>
</radialGradient>
<radialGradient id="paint24_radial_600_18" cx="0" cy="0" r="1" gradientUnits="userSpaceOnUse" gradientTransform="translate(18.2353 65.7753) rotate(153.7) scale(1.18316)">
<stop stop-color="#5E6769"/>
<stop offset="0.95" stop-color="#8F9394"/>
<stop offset="1" stop-color="#8F9394"/>
</radialGradient>
<radialGradient id="paint25_radial_600_18" cx="0" cy="0" r="1" gradientUnits="userSpaceOnUse" gradientTransform="translate(19.2855 66.9169) rotate(153.7) scale(1.18256)">
<stop stop-color="#5E6769"/>
<stop offset="0.95" stop-color="#8F9394"/>
<stop offset="1" stop-color="#8F9394"/>
</radialGradient>
<radialGradient id="paint26_radial_600_18" cx="0" cy="0" r="1" gradientUnits="userSpaceOnUse" gradientTransform="translate(-11030.3 1157.41) rotate(153.7) scale(1315.25 1315.25)">
<stop stop-color="#5E6769"/>
<stop offset="0.95" stop-color="#8F9394"/>
<stop offset="1" stop-color="#8F9394"/>
</radialGradient>
<radialGradient id="paint27_radial_600_18" cx="0" cy="0" r="1" gradientUnits="userSpaceOnUse" gradientTransform="translate(-11035.1 1175.84) rotate(153.7) scale(1316.06 1316.06)">
<stop stop-color="#5E6769"/>
<stop offset="0.95" stop-color="#8F9394"/>
<stop offset="1" stop-color="#8F9394"/>
</radialGradient>
<radialGradient id="paint28_radial_600_18" cx="0" cy="0" r="1" gradientUnits="userSpaceOnUse" gradientTransform="translate(18.184 64.8098) rotate(153.7) scale(1.18346)">
<stop stop-color="#5E6769"/>
<stop offset="0.95" stop-color="#8F9394"/>
<stop offset="1" stop-color="#8F9394"/>
</radialGradient>
<radialGradient id="paint29_radial_600_18" cx="0" cy="0" r="1" gradientUnits="userSpaceOnUse" gradientTransform="translate(19.1335 65.7676) rotate(153.7) scale(1.18376)">
<stop stop-color="#5E6769"/>
<stop offset="0.95" stop-color="#8F9394"/>
<stop offset="1" stop-color="#8F9394"/>
</radialGradient>
<radialGradient id="paint30_radial_600_18" cx="0" cy="0" r="1" gradientUnits="userSpaceOnUse" gradientTransform="translate(17.802 62.1017) rotate(153.7) scale(1.18346)">
<stop stop-color="#5E6769"/>
<stop offset="0.95" stop-color="#8F9394"/>
<stop offset="1" stop-color="#8F9394"/>
</radialGradient>
<radialGradient id="paint31_radial_600_18" cx="0" cy="0" r="1" gradientUnits="userSpaceOnUse" gradientTransform="translate(17.3285 62.8481) rotate(153.7) scale(1.18256 1.18257)">
<stop stop-color="#5E6769"/>
<stop offset="0.95" stop-color="#8F9394"/>
<stop offset="1" stop-color="#8F9394"/>
</radialGradient>
<radialGradient id="paint32_radial_600_18" cx="0" cy="0" r="1" gradientUnits="userSpaceOnUse" gradientTransform="translate(18.2559 60.2317) rotate(153.7) scale(1.18854)">
<stop stop-color="#5E6769"/>
<stop offset="0.95" stop-color="#8F9394"/>
<stop offset="1" stop-color="#8F9394"/>
</radialGradient>
<radialGradient id="paint33_radial_600_18" cx="0" cy="0" r="1" gradientUnits="userSpaceOnUse" gradientTransform="translate(-11049.1 1157.22) rotate(153.7) scale(1317.33 1317.33)">
<stop stop-color="#5E6769"/>
<stop offset="0.95" stop-color="#8F9394"/>
<stop offset="1" stop-color="#8F9394"/>
</radialGradient>
<radialGradient id="paint34_radial_600_18" cx="0" cy="0" r="1" gradientUnits="userSpaceOnUse" gradientTransform="translate(20.0746 62.0279) rotate(153.7) scale(1.18376)">
<stop stop-color="#5E6769"/>
<stop offset="0.95" stop-color="#8F9394"/>
<stop offset="1" stop-color="#8F9394"/>
</radialGradient>
<radialGradient id="paint35_radial_600_18" cx="0" cy="0" r="1" gradientUnits="userSpaceOnUse" gradientTransform="translate(18.9968 59.361) rotate(153.69) scale(1.18376)">
<stop stop-color="#5E6769"/>
<stop offset="0.95" stop-color="#8F9394"/>
<stop offset="1" stop-color="#8F9394"/>
</radialGradient>
<radialGradient id="paint36_radial_600_18" cx="0" cy="0" r="1" gradientUnits="userSpaceOnUse" gradientTransform="translate(19.8312 60.487) rotate(153.7) scale(1.18465)">
<stop stop-color="#5E6769"/>
<stop offset="0.95" stop-color="#8F9394"/>
<stop offset="1" stop-color="#8F9394"/>
</radialGradient>
<radialGradient id="paint37_radial_600_18" cx="0" cy="0" r="1" gradientUnits="userSpaceOnUse" gradientTransform="translate(19.4034 60.038) rotate(153.7) scale(1.18316)">
<stop stop-color="#5E6769"/>
<stop offset="0.95" stop-color="#8F9394"/>
<stop offset="1" stop-color="#8F9394"/>
</radialGradient>
<radialGradient id="paint38_radial_600_18" cx="0" cy="0" r="1" gradientUnits="userSpaceOnUse" gradientTransform="translate(20.0146 51.7728) rotate(70.73) scale(5.54182 5.54182)">
<stop stop-color="#383839"/>
<stop offset="1" stop-color="#171718"/>
</radialGradient>
<radialGradient id="paint39_radial_600_18" cx="0" cy="0" r="1" gradientUnits="userSpaceOnUse" gradientTransform="translate(-11053.8 1154.3) rotate(153.7) scale(1317.86 1317.86)">
<stop stop-color="#5E6769"/>
<stop offset="0.95" stop-color="#8F9394"/>
<stop offset="1" stop-color="#8F9394"/>
</radialGradient>
<radialGradient id="paint40_radial_600_18" cx="0" cy="0" r="1" gradientUnits="userSpaceOnUse" gradientTransform="translate(70.9618 61.0114) rotate(153.7) scale(1.18346)">
<stop stop-color="#5E6769"/>
<stop offset="0.95" stop-color="#8F9394"/>
<stop offset="1" stop-color="#8F9394"/>
</radialGradient>
<radialGradient id="paint41_radial_600_18" cx="0" cy="0" r="1" gradientUnits="userSpaceOnUse" gradientTransform="translate(73.8238 61.0794) rotate(153.7) scale(1.18466 1.18466)">
<stop stop-color="#5E6769"/>
<stop offset="0.95" stop-color="#8F9394"/>
<stop offset="1" stop-color="#8F9394"/>
</radialGradient>
<radialGradient id="paint42_radial_600_18" cx="0" cy="0" r="1" gradientUnits="userSpaceOnUse" gradientTransform="translate(71.7918 59.899) rotate(153.7) scale(1.18167 1.18167)">
<stop stop-color="#5E6769"/>
<stop offset="0.95" stop-color="#8F9394"/>
<stop offset="1" stop-color="#8F9394"/>
</radialGradient>
<radialGradient id="paint43_radial_600_18" cx="0" cy="0" r="1" gradientUnits="userSpaceOnUse" gradientTransform="translate(73.5108 62.6415) rotate(153.7) scale(1.17987)">
<stop stop-color="#5E6769"/>
<stop offset="0.95" stop-color="#8F9394"/>
<stop offset="1" stop-color="#8F9394"/>
</radialGradient>
<radialGradient id="paint44_radial_600_18" cx="0" cy="0" r="1" gradientUnits="userSpaceOnUse" gradientTransform="translate(74.4933 62.4236) rotate(153.7) scale(1.18346)">
<stop stop-color="#5E6769"/>
<stop offset="0.95" stop-color="#8F9394"/>
<stop offset="1" stop-color="#8F9394"/>
</radialGradient>
<radialGradient id="paint45_radial_600_18" cx="0" cy="0" r="1" gradientUnits="userSpaceOnUse" gradientTransform="translate(-11029.5 1156.46) rotate(153.7) scale(1315.25 1315.25)">
<stop stop-color="#5E6769"/>
<stop offset="0.95" stop-color="#8F9394"/>
<stop offset="1" stop-color="#8F9394"/>
</radialGradient>
<radialGradient id="paint46_radial_600_18" cx="0" cy="0" r="1" gradientUnits="userSpaceOnUse" gradientTransform="translate(-11058.3 1164.42) rotate(153.7) scale(1318.62 1318.62)">
<stop stop-color="#5E6769"/>
<stop offset="0.95" stop-color="#8F9394"/>
<stop offset="1" stop-color="#8F9394"/>
</radialGradient>
<radialGradient id="paint47_radial_600_18" cx="0" cy="0" r="1" gradientUnits="userSpaceOnUse" gradientTransform="translate(74.0292 63.8611) rotate(153.7) scale(1.18226)">
<stop stop-color="#5E6769"/>
<stop offset="0.95" stop-color="#8F9394"/>
<stop offset="1" stop-color="#8F9394"/>
</radialGradient>
<radialGradient id="paint48_radial_600_18" cx="0" cy="0" r="1" gradientUnits="userSpaceOnUse" gradientTransform="translate(74.5244 63.1993) rotate(153.7) scale(1.18585)">
<stop stop-color="#5E6769"/>
<stop offset="0.95" stop-color="#8F9394"/>
<stop offset="1" stop-color="#8F9394"/>
</radialGradient>
<radialGradient id="paint49_radial_600_18" cx="0" cy="0" r="1" gradientUnits="userSpaceOnUse" gradientTransform="translate(75.5355 64.5964) rotate(153.7) scale(1.18376)">
<stop stop-color="#5E6769"/>
<stop offset="0.95" stop-color="#8F9394"/>
<stop offset="1" stop-color="#8F9394"/>
</radialGradient>
<radialGradient id="paint50_radial_600_18" cx="0" cy="0" r="1" gradientUnits="userSpaceOnUse" gradientTransform="translate(75.1565 64.9139) rotate(153.7) scale(1.19213 1.19213)">
<stop stop-color="#5E6769"/>
<stop offset="0.95" stop-color="#8F9394"/>
<stop offset="1" stop-color="#8F9394"/>
</radialGradient>
<radialGradient id="paint51_radial_600_18" cx="0" cy="0" r="1" gradientUnits="userSpaceOnUse" gradientTransform="translate(74.9018 66.4089) rotate(153.7) scale(1.18436)">
<stop stop-color="#5E6769"/>
<stop offset="0.95" stop-color="#8F9394"/>
<stop offset="1" stop-color="#8F9394"/>
</radialGradient>
<radialGradient id="paint52_radial_600_18" cx="0" cy="0" r="1" gradientUnits="userSpaceOnUse" gradientTransform="translate(-11048.4 1155.27) rotate(153.7) scale(1317.19 1317.19)">
<stop stop-color="#5E6769"/>
<stop offset="0.95" stop-color="#8F9394"/>
<stop offset="1" stop-color="#8F9394"/>
</radialGradient>
<radialGradient id="paint53_radial_600_18" cx="0" cy="0" r="1" gradientUnits="userSpaceOnUse" gradientTransform="translate(75.0904 66.3202) rotate(153.7) scale(1.18197)">
<stop stop-color="#5E6769"/>
<stop offset="0.95" stop-color="#8F9394"/>
<stop offset="1" stop-color="#8F9394"/>
</radialGradient>
<radialGradient id="paint54_radial_600_18" cx="0" cy="0" r="1" gradientUnits="userSpaceOnUse" gradientTransform="translate(73.2932 66.1858) rotate(153.7) scale(1.18256)">
<stop stop-color="#5E6769"/>
<stop offset="0.95" stop-color="#8F9394"/>
<stop offset="1" stop-color="#8F9394"/>
</radialGradient>
<radialGradient id="paint55_radial_600_18" cx="0" cy="0" r="1" gradientUnits="userSpaceOnUse" gradientTransform="translate(72.6935 67.5474) rotate(153.7) scale(1.18256)">
<stop stop-color="#5E6769"/>
<stop offset="0.95" stop-color="#8F9394"/>
<stop offset="1" stop-color="#8F9394"/>
</radialGradient>
<radialGradient id="paint56_radial_600_18" cx="0" cy="0" r="1" gradientUnits="userSpaceOnUse" gradientTransform="translate(74.2983 67.9814) rotate(153.7) scale(1.18376)">
<stop stop-color="#5E6769"/>
<stop offset="0.95" stop-color="#8F9394"/>
<stop offset="1" stop-color="#8F9394"/>
</radialGradient>
<radialGradient id="paint57_radial_600_18" cx="0" cy="0" r="1" gradientUnits="userSpaceOnUse" gradientTransform="translate(-11054.3 1155.14) rotate(153.7) scale(1317.66 1317.66)">
<stop stop-color="#5E6769"/>
<stop offset="0.95" stop-color="#8F9394"/>
<stop offset="1" stop-color="#8F9394"/>
</radialGradient>
<radialGradient id="paint58_radial_600_18" cx="0" cy="0" r="1" gradientUnits="userSpaceOnUse" gradientTransform="translate(70.1438 67.2939) rotate(153.7) scale(1.17599)">
<stop stop-color="#5E6769"/>
<stop offset="0.95" stop-color="#8F9394"/>
<stop offset="1" stop-color="#8F9394"/>
</radialGradient>
<radialGradient id="paint59_radial_600_18" cx="0" cy="0" r="1" gradientUnits="userSpaceOnUse" gradientTransform="translate(69.2226 66.383) rotate(153.7) scale(1.18256)">
<stop stop-color="#5E6769"/>
<stop offset="0.95" stop-color="#8F9394"/>
<stop offset="1" stop-color="#8F9394"/>
</radialGradient>
<radialGradient id="paint60_radial_600_18" cx="0" cy="0" r="1" gradientUnits="userSpaceOnUse" gradientTransform="translate(70.6591 67.796) rotate(153.7) scale(1.18137 1.18137)">
<stop stop-color="#5E6769"/>
<stop offset="0.95" stop-color="#8F9394"/>
<stop offset="1" stop-color="#8F9394"/>
</radialGradient>
<radialGradient id="paint61_radial_600_18" cx="0" cy="0" r="1" gradientUnits="userSpaceOnUse" gradientTransform="translate(68.1847 65.9005) rotate(153.7) scale(1.18316)">
<stop stop-color="#5E6769"/>
<stop offset="0.95" stop-color="#8F9394"/>
<stop offset="1" stop-color="#8F9394"/>
</radialGradient>
<radialGradient id="paint62_radial_600_18" cx="0" cy="0" r="1" gradientUnits="userSpaceOnUse" gradientTransform="translate(69.4218 66.9373) rotate(153.7) scale(1.18257 1.18256)">
<stop stop-color="#5E6769"/>
<stop offset="0.95" stop-color="#8F9394"/>
<stop offset="1" stop-color="#8F9394"/>
</radialGradient>
<radialGradient id="paint63_radial_600_18" cx="0" cy="0" r="1" gradientUnits="userSpaceOnUse" gradientTransform="translate(-11030.4 1157.91) rotate(153.7) scale(1315.25 1315.26)">
<stop stop-color="#5E6769"/>
<stop offset="0.95" stop-color="#8F9394"/>
<stop offset="1" stop-color="#8F9394"/>
</radialGradient>
<radialGradient id="paint64_radial_600_18" cx="0" cy="0" r="1" gradientUnits="userSpaceOnUse" gradientTransform="translate(-11044.4 1156.41) rotate(153.7) scale(1317 1317)">
<stop stop-color="#5E6769"/>
<stop offset="0.95" stop-color="#8F9394"/>
<stop offset="1" stop-color="#8F9394"/>
</radialGradient>
<radialGradient id="paint65_radial_600_18" cx="0" cy="0" r="1" gradientUnits="userSpaceOnUse" gradientTransform="translate(68.3584 64.8302) rotate(153.7) scale(1.18346)">
<stop stop-color="#5E6769"/>
<stop offset="0.95" stop-color="#8F9394"/>
<stop offset="1" stop-color="#8F9394"/>
</radialGradient>
<radialGradient id="paint66_radial_600_18" cx="0" cy="0" r="1" gradientUnits="userSpaceOnUse" gradientTransform="translate(69.108 65.8929) rotate(153.7) scale(1.18376)">
<stop stop-color="#5E6769"/>
<stop offset="0.95" stop-color="#8F9394"/>
<stop offset="1" stop-color="#8F9394"/>
</radialGradient>
<radialGradient id="paint67_radial_600_18" cx="0" cy="0" r="1" gradientUnits="userSpaceOnUse" gradientTransform="translate(67.3827 62.4044) rotate(153.7) scale(1.18346)">
<stop stop-color="#5E6769"/>
<stop offset="0.95" stop-color="#8F9394"/>
<stop offset="1" stop-color="#8F9394"/>
</radialGradient>
<radialGradient id="paint68_radial_600_18" cx="0" cy="0" r="1" gradientUnits="userSpaceOnUse" gradientTransform="translate(67.2528 62.9733) rotate(153.7) scale(1.18256 1.18257)">
<stop stop-color="#5E6769"/>
<stop offset="0.95" stop-color="#8F9394"/>
<stop offset="1" stop-color="#8F9394"/>
</radialGradient>
<radialGradient id="paint69_radial_600_18" cx="0" cy="0" r="1" gradientUnits="userSpaceOnUse" gradientTransform="translate(67.4569 61.3664) rotate(153.7) scale(1.18854)">
<stop stop-color="#5E6769"/>
<stop offset="0.95" stop-color="#8F9394"/>
<stop offset="1" stop-color="#8F9394"/>
</radialGradient>
<radialGradient id="paint70_radial_600_18" cx="0" cy="0" r="1" gradientUnits="userSpaceOnUse" gradientTransform="translate(-11049.2 1157.01) rotate(153.7) scale(1317.33 1317.33)">
<stop stop-color="#5E6769"/>
<stop offset="0.95" stop-color="#8F9394"/>
<stop offset="1" stop-color="#8F9394"/>
</radialGradient>
<radialGradient id="paint71_radial_600_18" cx="0" cy="0" r="1" gradientUnits="userSpaceOnUse" gradientTransform="translate(70.0493 62.1532) rotate(153.7) scale(1.18375 1.18376)">
<stop stop-color="#5E6769"/>
<stop offset="0.95" stop-color="#8F9394"/>
<stop offset="1" stop-color="#8F9394"/>
</radialGradient>
<radialGradient id="paint72_radial_600_18" cx="0" cy="0" r="1" gradientUnits="userSpaceOnUse" gradientTransform="translate(68.6378 59.8332) rotate(153.7) scale(1.18376)">
<stop stop-color="#5E6769"/>
<stop offset="0.95" stop-color="#8F9394"/>
<stop offset="1" stop-color="#8F9394"/>
</radialGradient>
<radialGradient id="paint73_radial_600_18" cx="0" cy="0" r="1" gradientUnits="userSpaceOnUse" gradientTransform="translate(70.0561 60.5074) rotate(153.7) scale(1.18466 1.18466)">
<stop stop-color="#5E6769"/>
<stop offset="0.95" stop-color="#8F9394"/>
<stop offset="1" stop-color="#8F9394"/>
</radialGradient>
<radialGradient id="paint74_radial_600_18" cx="0" cy="0" r="1" gradientUnits="userSpaceOnUse" gradientTransform="translate(69.3527 60.1632) rotate(153.7) scale(1.18316)">
<stop stop-color="#5E6769"/>
<stop offset="0.95" stop-color="#8F9394"/>
<stop offset="1" stop-color="#8F9394"/>
</radialGradient>
<radialGradient id="paint75_radial_600_18" cx="0" cy="0" r="1" gradientUnits="userSpaceOnUse" gradientTransform="translate(70.1215 51.8672) rotate(70.73) scale(5.54182 5.54182)">
<stop stop-color="#383839"/>
<stop offset="1" stop-color="#171718"/>
</radialGradient>
<linearGradient id="paint76_linear_600_18" x1="58.235" y1="34.4194" x2="58.235" y2="62.7746" gradientUnits="userSpaceOnUse">
<stop stop-color="#0C2668"/>
<stop offset="1" stop-color="#0C3F85"/>
</linearGradient>
<linearGradient id="paint77_linear_600_18" x1="8.71819" y1="48.5186" x2="8.71819" y2="56.4511" gradientUnits="userSpaceOnUse">
<stop stop-color="#0C1856"/>
<stop offset="1" stop-color="#0C4A93"/>
</linearGradient>
<linearGradient id="paint78_linear_600_18" x1="8.71819" y1="48.5186" x2="8.71819" y2="56.4511" gradientUnits="userSpaceOnUse">
<stop stop-color="#0C1856"/>
<stop offset="1" stop-color="#0C4A93"/>
</linearGradient>
<linearGradient id="paint79_linear_600_18" x1="8.61333" y1="49.4637" x2="8.61333" y2="51.8426" gradientUnits="userSpaceOnUse">
<stop stop-color="#0C1856"/>
<stop offset="1" stop-color="#0C4A93"/>
</linearGradient>
<linearGradient id="paint80_linear_600_18" x1="7.51952" y1="52.255" x2="7.51952" y2="54.5263" gradientUnits="userSpaceOnUse">
<stop stop-color="#0C1856"/>
<stop offset="1" stop-color="#0C4A93"/>
</linearGradient>
<linearGradient id="paint81_linear_600_18" x1="37.9876" y1="31.9509" x2="37.9876" y2="33.5288" gradientUnits="userSpaceOnUse">
<stop stop-color="#0C1856"/>
<stop offset="1" stop-color="#0C4A93"/>
</linearGradient>
<linearGradient id="paint82_linear_600_18" x1="37.9876" y1="31.9509" x2="37.9876" y2="33.5288" gradientUnits="userSpaceOnUse">
<stop stop-color="#0C1856"/>
<stop offset="1" stop-color="#0C4A93"/>
</linearGradient>
<linearGradient id="paint83_linear_600_18" x1="37.9876" y1="31.6938" x2="37.9876" y2="33.5348" gradientUnits="userSpaceOnUse">
<stop stop-color="#0C2A6C"/>
<stop offset="1" stop-color="white"/>
</linearGradient>
<linearGradient id="paint84_linear_600_18" x1="88.1472" y1="31.9509" x2="88.1472" y2="33.5288" gradientUnits="userSpaceOnUse">
<stop stop-color="#0C1856"/>
<stop offset="1" stop-color="#0C4A93"/>
</linearGradient>
<linearGradient id="paint85_linear_600_18" x1="88.1471" y1="31.9508" x2="88.1471" y2="33.5288" gradientUnits="userSpaceOnUse">
<stop stop-color="#0C1856"/>
<stop offset="1" stop-color="#0C4A93"/>
</linearGradient>
<linearGradient id="paint86_linear_600_18" x1="87.7109" y1="31.407" x2="87.7109" y2="33.2479" gradientUnits="userSpaceOnUse">
<stop stop-color="#0C2A6C"/>
<stop offset="1" stop-color="white" stop-opacity="0"/>
</linearGradient>
</defs>
</svg>
