<svg width="100" height="100" viewBox="0 0 100 100" fill="none" xmlns="http://www.w3.org/2000/svg">
<path d="M49.6053 79.3216L31.391 93.7654V8.5H68.8592V93.7792L50.2225 79.3183L49.9127 79.0779L49.6053 79.3216Z" fill="url(#paint0_linear_600_17)" stroke="white"/>
<circle cx="50.125" cy="45.975" r="27.125" fill="url(#paint1_radial_600_17)"/>
<circle cx="50.125" cy="45.975" r="23.6727" stroke="white" stroke-width="2"/>
<circle cx="50.125" cy="45.975" r="19.2273" stroke="white"/>
<path d="M41.386 33.3311V43.5129H38.6218V33.3311H41.386ZM48.1847 36.5129C48.1582 36.1815 48.0339 35.923 47.8118 35.7374C47.5931 35.5518 47.26 35.459 46.8125 35.459C46.5275 35.459 46.2938 35.4938 46.1115 35.5634C45.9326 35.6297 45.8 35.7208 45.7138 35.8368C45.6276 35.9528 45.5829 36.0854 45.5796 36.2345C45.5729 36.3572 45.5945 36.4682 45.6442 36.5676C45.6972 36.6637 45.7801 36.7516 45.8928 36.8311C46.0055 36.9074 46.1496 36.977 46.3253 37.0399C46.501 37.1029 46.7098 37.1592 46.9517 37.209L47.787 37.3879C48.3504 37.5073 48.8326 37.6647 49.2337 37.8602C49.6347 38.0558 49.9629 38.2861 50.2181 38.5513C50.4733 38.8131 50.6605 39.1081 50.7799 39.4362C50.9025 39.7644 50.9655 40.1223 50.9688 40.5101C50.9655 41.1796 50.7981 41.7464 50.4666 42.2104C50.1352 42.6744 49.6612 43.0274 49.0448 43.2693C48.4316 43.5113 47.6942 43.6323 46.8324 43.6323C45.9475 43.6323 45.1752 43.5013 44.5156 43.2395C43.8594 42.9777 43.349 42.575 42.9844 42.0314C42.6231 41.4845 42.4408 40.7852 42.4375 39.9334H45.0625C45.0791 40.2449 45.157 40.5068 45.2962 40.7189C45.4354 40.931 45.6309 41.0918 45.8828 41.2011C46.138 41.3105 46.4413 41.3652 46.7926 41.3652C47.0876 41.3652 47.3345 41.3288 47.5334 41.2558C47.7323 41.1829 47.8831 41.0818 47.9858 40.9526C48.0886 40.8233 48.1416 40.6758 48.1449 40.5101C48.1416 40.3543 48.0902 40.2184 47.9908 40.1024C47.8947 39.9831 47.7356 39.877 47.5135 39.7842C47.2915 39.6881 46.9915 39.5986 46.6137 39.5158L45.5995 39.297C44.6979 39.1015 43.987 38.775 43.4666 38.3176C42.9496 37.8569 42.6927 37.2288 42.696 36.4334C42.6927 35.7871 42.8651 35.222 43.2131 34.7381C43.5644 34.2509 44.05 33.8714 44.6698 33.5996C45.2929 33.3278 46.0071 33.1919 46.8125 33.1919C47.6345 33.1919 48.3454 33.3295 48.9453 33.6046C49.5452 33.8797 50.0076 34.2674 50.3324 34.7679C50.6605 35.2651 50.8263 35.8467 50.8296 36.5129H48.1847ZM61.8839 38.422C61.8839 39.5556 61.6635 40.5118 61.2227 41.2906C60.7819 42.0662 60.1869 42.6545 59.4379 43.0556C58.6888 43.4533 57.8536 43.6521 56.9322 43.6521C56.0042 43.6521 55.1656 43.4516 54.4166 43.0506C53.6708 42.6462 53.0776 42.0563 52.6367 41.2807C52.1992 40.5018 51.9805 39.5489 51.9805 38.422C51.9805 37.2885 52.1992 36.334 52.6367 35.5584C53.0776 34.7795 53.6708 34.1912 54.4166 33.7935C55.1656 33.3924 56.0042 33.1919 56.9322 33.1919C57.8536 33.1919 58.6888 33.3924 59.4379 33.7935C60.1869 34.1912 60.7819 34.7795 61.2227 35.5584C61.6635 36.334 61.8839 37.2885 61.8839 38.422ZM59.0402 38.422C59.0402 37.8122 58.9589 37.2985 58.7965 36.8808C58.6375 36.4599 58.4005 36.1417 58.0856 35.9263C57.7741 35.7075 57.3896 35.5982 56.9322 35.5982C56.4748 35.5982 56.0887 35.7075 55.7738 35.9263C55.4623 36.1417 55.2253 36.4599 55.0629 36.8808C54.9038 37.2985 54.8242 37.8122 54.8242 38.422C54.8242 39.0319 54.9038 39.5473 55.0629 39.9682C55.2253 40.3858 55.4623 40.704 55.7738 40.9227C56.0887 41.1382 56.4748 41.2459 56.9322 41.2459C57.3896 41.2459 57.7741 41.1382 58.0856 40.9227C58.4005 40.704 58.6375 40.3858 58.7965 39.9682C58.9589 39.5473 59.0402 39.0319 59.0402 38.422Z" fill="white"/>
<rect x="35.3295" y="44.9886" width="29.0977" height="0.493182" fill="white"/>
<path d="M37.5962 48.5906H36.9322C36.9132 48.4817 36.8783 48.3852 36.8274 48.3011C36.7765 48.2159 36.7132 48.1437 36.6374 48.0845C36.5617 48.0253 36.4753 47.9809 36.3782 47.9513C36.2823 47.9206 36.1787 47.9052 36.0675 47.9052C35.8698 47.9052 35.6946 47.9549 35.5419 48.0543C35.3892 48.1526 35.2696 48.297 35.1832 48.4876C35.0968 48.677 35.0536 48.9084 35.0536 49.1818C35.0536 49.46 35.0968 49.6944 35.1832 49.8849C35.2708 50.0743 35.3904 50.2176 35.5419 50.3146C35.6946 50.4105 35.8692 50.4585 36.0657 50.4585C36.1746 50.4585 36.2764 50.4442 36.3711 50.4158C36.467 50.3862 36.5528 50.343 36.6286 50.2862C36.7055 50.2294 36.77 50.1596 36.8221 50.0767C36.8754 49.9938 36.9121 49.8991 36.9322 49.7926L37.5962 49.7962C37.5714 49.969 37.5175 50.1312 37.4347 50.2827C37.353 50.4342 37.2459 50.5679 37.1133 50.6839C36.9807 50.7988 36.8256 50.8887 36.6481 50.9538C36.4705 51.0178 36.2734 51.0497 36.0568 51.0497C35.7372 51.0497 35.4519 50.9757 35.201 50.8278C34.95 50.6798 34.7524 50.4661 34.608 50.1868C34.4635 49.9074 34.3913 49.5724 34.3913 49.1818C34.3913 48.79 34.4641 48.455 34.6097 48.1768C34.7553 47.8975 34.9536 47.6838 35.2045 47.5359C35.4555 47.3879 35.7396 47.3139 36.0568 47.3139C36.2592 47.3139 36.4474 47.3423 36.6214 47.3991C36.7955 47.456 36.9505 47.5394 37.0866 47.6495C37.2228 47.7584 37.3346 47.8922 37.4222 48.0508C37.511 48.2082 37.569 48.3881 37.5962 48.5906ZM39.0745 51V47.3636H41.4395V47.9158H39.7332V48.9031H41.317V49.4553H39.7332V50.4478H41.4537V51H39.0745ZM42.9866 51V47.3636H44.3502C44.6296 47.3636 44.864 47.4122 45.0534 47.5092C45.2439 47.6063 45.3878 47.7424 45.4848 47.9176C45.5831 48.0916 45.6322 48.2946 45.6322 48.5266C45.6322 48.7598 45.5825 48.9622 45.483 49.1339C45.3848 49.3043 45.2398 49.4363 45.048 49.5298C44.8563 49.6222 44.6207 49.6683 44.3414 49.6683H43.3701V49.1214H44.2526C44.4159 49.1214 44.5497 49.099 44.6539 49.054C44.758 49.0078 44.835 48.9409 44.8847 48.8533C44.9356 48.7646 44.961 48.6557 44.961 48.5266C44.961 48.3976 44.9356 48.2875 44.8847 48.1964C44.8338 48.104 44.7562 48.0342 44.6521 47.9869C44.5479 47.9383 44.4136 47.9141 44.249 47.9141H43.6453V51H42.9866ZM44.8651 49.3523L45.7654 51H45.0303L44.146 49.3523H44.8651ZM46.9537 47.9158V47.3636H49.855V47.9158H48.7311V51H48.0777V47.9158H46.9537ZM51.9481 47.3636V51H51.2893V47.3636H51.9481ZM53.5364 51V47.3636H55.8659V47.9158H54.1951V48.9031H55.7061V49.4553H54.1951V51H53.5364ZM57.9998 47.3636V51H57.3411V47.3636H57.9998ZM59.5882 51V47.3636H61.9532V47.9158H60.2469V48.9031H61.8307V49.4553H60.2469V50.4478H61.9674V51H59.5882ZM64.7325 51H63.5003V47.3636H64.7574C65.1184 47.3636 65.4285 47.4364 65.6878 47.582C65.9482 47.7264 66.1482 47.9342 66.2879 48.2053C66.4276 48.4763 66.4974 48.8007 66.4974 49.1783C66.4974 49.5571 66.427 49.8826 66.2861 50.1548C66.1465 50.4271 65.9446 50.636 65.6807 50.7816C65.4179 50.9272 65.1018 51 64.7325 51ZM64.159 50.43H64.7006C64.9539 50.43 65.1652 50.3839 65.3344 50.2915C65.5037 50.198 65.6309 50.0589 65.7162 49.8743C65.8014 49.6884 65.844 49.4564 65.844 49.1783C65.844 48.9001 65.8014 48.6693 65.7162 48.4858C65.6309 48.3011 65.5049 48.1632 65.338 48.0721C65.1723 47.9798 64.9663 47.9336 64.7201 47.9336H64.159V50.43Z" fill="white"/>
<path d="M49.2483 58.7753L47.0563 56.6457L47.6745 56.0408L49.2483 57.5699L52.5756 54.3371L53.1937 54.9419M53.1937 52.3864H47.0563C46.5697 52.3864 46.1796 52.7654 46.1796 53.2382V58.7455C46.1796 59.0394 46.333 59.2992 46.5653 59.4525L50.125 61.7568L53.6803 59.4525C53.9127 59.2992 54.0705 59.0394 54.0705 58.7455V53.2382C54.0705 53.0123 53.9781 52.7956 53.8137 52.6359C53.6492 52.4761 53.4262 52.3864 53.1937 52.3864Z" fill="white"/>
<defs>
<linearGradient id="paint0_linear_600_17" x1="50.1251" y1="8" x2="50.1251" y2="94.8" gradientUnits="userSpaceOnUse">
<stop stop-color="#0C1755"/>
<stop offset="1" stop-color="#0C549F"/>
</linearGradient>
<radialGradient id="paint1_radial_600_17" cx="0" cy="0" r="1" gradientUnits="userSpaceOnUse" gradientTransform="translate(50.125 45.975) rotate(90) scale(27.125)">
<stop stop-color="#0A0E4C"/>
<stop offset="1" stop-color="#123977"/>
</radialGradient>
</defs>
</svg>
