<svg width="299" height="315" viewBox="0 0 299 315" fill="none" xmlns="http://www.w3.org/2000/svg">
<rect x="2.5" y="2.5" width="278" height="303" rx="15.5" fill="white" stroke="#0C549F" stroke-width="5"/>
<path d="M24 61H266" stroke="#0C549F" stroke-width="5" stroke-linecap="round" stroke-linejoin="round"/>
<path d="M24 89H266" stroke="#0C549F" stroke-width="5" stroke-linecap="round" stroke-linejoin="round"/>
<path d="M24 117H266" stroke="#0C549F" stroke-width="5" stroke-linecap="round" stroke-linejoin="round"/>
<path d="M24 134L163.5 134" stroke="#0C549F" stroke-width="5" stroke-linecap="round" stroke-linejoin="round"/>
<path d="M24 152H162.5" stroke="#0C549F" stroke-width="5" stroke-linecap="round" stroke-linejoin="round"/>
<path d="M24 170H162.5" stroke="#0C549F" stroke-width="5" stroke-linecap="round" stroke-linejoin="round"/>
<path d="M24 206H267.5" stroke="#0C549F" stroke-width="3" stroke-linecap="round" stroke-linejoin="round"/>
<path d="M113 26H185" stroke="#0C549F" stroke-width="3" stroke-linecap="round" stroke-linejoin="round"/>
<path d="M24 188H161.5" stroke="#0C549F" stroke-width="5" stroke-linecap="round" stroke-linejoin="round"/>
<rect x="178.5" y="127.5" width="80" height="67" rx="6.5" stroke="#0C549F"/>
<g filter="url(#filter0_d_810_209)">
<rect x="174" y="228" width="88.1897" height="62" rx="9" fill="white"/>
<path d="M174 237C174 232.029 178.029 228 183 228H253.19C258.16 228 262.19 232.029 262.19 237V252.052H174V237Z" fill="#E691CC"/>
<circle cx="188.965" cy="240.828" r="8.55172" fill="white"/>
<rect x="200.189" y="245.638" width="58.2586" height="2.13793" fill="white"/>
<rect x="200.189" y="241.362" width="58.2586" height="0.534483" fill="white"/>
<rect x="180.414" y="285.19" width="19.7759" height="0.534483" fill="#212121"/>
<rect x="180.414" y="260.603" width="18.1724" height="0.534483" fill="#D9D9D9"/>
<rect x="207.672" y="254.724" width="26.1897" height="1.60345" fill="#212121"/>
<rect x="180.414" y="271.828" width="18.1724" height="0.534483" fill="#D9D9D9"/>
<rect x="180.414" y="264.345" width="18.1724" height="0.534483" fill="#D9D9D9"/>
<rect x="180.414" y="275.569" width="18.1724" height="0.534483" fill="#D9D9D9"/>
<rect x="180.414" y="268.086" width="18.1724" height="0.534483" fill="#D9D9D9"/>
<rect x="180.414" y="279.31" width="18.1724" height="0.534483" fill="#D9D9D9"/>
<rect x="201.259" y="260.603" width="55.0517" height="0.534483" fill="#D9D9D9"/>
<rect x="201.259" y="271.828" width="55.0517" height="0.534483" fill="#D9D9D9"/>
<rect x="201.259" y="264.345" width="55.0517" height="0.534483" fill="#D9D9D9"/>
<rect x="201.259" y="275.569" width="55.0517" height="0.534483" fill="#D9D9D9"/>
<rect x="201.259" y="268.086" width="55.0517" height="0.534483" fill="#D9D9D9"/>
<rect x="201.259" y="279.31" width="55.0517" height="0.534483" fill="#D9D9D9"/>
<rect x="238.672" y="285.19" width="19.7759" height="0.534483" fill="#212121"/>
</g>
<path d="M209.24 235.818H209.893L210.447 237.169H210.472L211.026 235.818H211.679V238H211.166V236.66H211.148L210.623 237.986H210.295L209.771 236.652H209.753V238H209.24V235.818ZM212.008 238V236.364H212.529V238H212.008ZM212.269 236.173C212.196 236.173 212.133 236.149 212.081 236.1C212.028 236.051 212.002 235.993 212.002 235.924C212.002 235.855 212.028 235.797 212.081 235.749C212.133 235.7 212.196 235.675 212.269 235.675C212.343 235.675 212.406 235.7 212.458 235.749C212.51 235.797 212.536 235.855 212.536 235.924C212.536 235.993 212.51 236.051 212.458 236.1C212.406 236.149 212.343 236.173 212.269 236.173ZM213.382 237.067V238H212.861V236.364H213.356V236.664H213.374C213.41 236.564 213.472 236.485 213.559 236.429C213.647 236.371 213.751 236.342 213.872 236.342C213.987 236.342 214.086 236.368 214.171 236.42C214.256 236.471 214.322 236.543 214.369 236.635C214.417 236.727 214.44 236.834 214.439 236.957V238H213.918V237.059C213.919 236.968 213.896 236.897 213.849 236.846C213.803 236.795 213.739 236.77 213.656 236.77C213.602 236.77 213.553 236.782 213.512 236.806C213.47 236.829 213.438 236.863 213.416 236.907C213.394 236.951 213.382 237.004 213.382 237.067ZM216.191 236.863L215.712 236.876C215.707 236.842 215.694 236.812 215.672 236.786C215.65 236.759 215.621 236.738 215.585 236.723C215.551 236.707 215.51 236.699 215.464 236.699C215.404 236.699 215.352 236.711 215.31 236.735C215.268 236.76 215.247 236.792 215.248 236.833C215.247 236.865 215.26 236.893 215.286 236.917C215.313 236.94 215.361 236.959 215.43 236.973L215.745 237.033C215.909 237.064 216.03 237.116 216.11 237.188C216.19 237.261 216.23 237.357 216.231 237.476C216.23 237.588 216.197 237.686 216.131 237.769C216.066 237.852 215.976 237.917 215.862 237.963C215.749 238.008 215.619 238.031 215.473 238.031C215.239 238.031 215.055 237.983 214.92 237.887C214.785 237.79 214.709 237.661 214.69 237.499L215.204 237.487C215.215 237.546 215.245 237.592 215.293 237.623C215.34 237.654 215.401 237.67 215.475 237.67C215.541 237.67 215.596 237.657 215.638 237.632C215.68 237.608 215.701 237.575 215.702 237.533C215.701 237.496 215.685 237.467 215.653 237.445C215.621 237.422 215.571 237.404 215.502 237.392L215.217 237.337C215.053 237.308 214.931 237.252 214.85 237.172C214.77 237.091 214.73 236.988 214.731 236.863C214.73 236.754 214.759 236.661 214.818 236.583C214.877 236.505 214.961 236.445 215.07 236.404C215.179 236.363 215.307 236.342 215.454 236.342C215.676 236.342 215.851 236.389 215.979 236.482C216.106 236.574 216.177 236.701 216.191 236.863ZM217.411 236.364V236.747H216.379V236.364H217.411ZM216.595 235.972H217.116V237.485C217.116 237.517 217.121 237.543 217.131 237.563C217.142 237.582 217.157 237.596 217.177 237.605C217.197 237.613 217.221 237.616 217.248 237.616C217.268 237.616 217.289 237.615 217.311 237.611C217.334 237.607 217.351 237.603 217.362 237.6L217.441 237.977C217.416 237.984 217.381 237.993 217.336 238.003C217.291 238.014 217.237 238.021 217.175 238.023C217.053 238.029 216.948 238.015 216.86 237.981C216.774 237.946 216.707 237.892 216.661 237.819C216.616 237.746 216.594 237.654 216.595 237.543V235.972ZM217.677 238V236.364H218.183V236.662H218.2C218.23 236.554 218.279 236.474 218.346 236.421C218.414 236.368 218.492 236.341 218.581 236.341C218.606 236.341 218.63 236.343 218.656 236.347C218.682 236.349 218.705 236.354 218.727 236.36V236.813C218.703 236.805 218.67 236.798 218.629 236.793C218.59 236.788 218.554 236.786 218.523 236.786C218.461 236.786 218.405 236.799 218.356 236.827C218.307 236.854 218.268 236.892 218.24 236.941C218.212 236.989 218.198 237.046 218.198 237.112V238H217.677ZM219.308 238.614C219.246 238.614 219.187 238.609 219.131 238.599C219.076 238.589 219.028 238.577 218.988 238.561L219.104 238.183C219.155 238.2 219.201 238.21 219.242 238.213C219.284 238.216 219.32 238.209 219.35 238.193C219.38 238.177 219.404 238.149 219.42 238.109L219.44 238.06L218.858 236.364H219.404L219.705 237.531H219.722L220.028 236.364H220.577L219.96 238.157C219.93 238.246 219.888 238.325 219.833 238.393C219.779 238.462 219.709 238.516 219.623 238.555C219.538 238.594 219.433 238.614 219.308 238.614ZM222.185 238.031C222.013 238.031 221.865 237.996 221.742 237.925C221.619 237.854 221.524 237.756 221.457 237.629C221.391 237.502 221.358 237.355 221.358 237.187C221.358 237.019 221.391 236.871 221.457 236.745C221.524 236.618 221.619 236.519 221.742 236.449C221.865 236.378 222.013 236.342 222.185 236.342C222.357 236.342 222.504 236.378 222.627 236.449C222.751 236.519 222.846 236.618 222.912 236.745C222.978 236.871 223.012 237.019 223.012 237.187C223.012 237.355 222.978 237.502 222.912 237.629C222.846 237.756 222.751 237.854 222.627 237.925C222.504 237.996 222.357 238.031 222.185 238.031ZM222.188 237.638C222.251 237.638 222.304 237.619 222.347 237.58C222.39 237.542 222.423 237.489 222.446 237.42C222.469 237.352 222.481 237.273 222.481 237.184C222.481 237.093 222.469 237.013 222.446 236.945C222.423 236.877 222.39 236.824 222.347 236.786C222.304 236.747 222.251 236.728 222.188 236.728C222.124 236.728 222.069 236.747 222.024 236.786C221.98 236.824 221.946 236.877 221.923 236.945C221.9 237.013 221.889 237.093 221.889 237.184C221.889 237.273 221.9 237.352 221.923 237.42C221.946 237.489 221.98 237.542 222.024 237.58C222.069 237.619 222.124 237.638 222.188 237.638ZM224.209 236.364V236.747H223.156V236.364H224.209ZM223.376 238V236.281C223.376 236.154 223.399 236.049 223.447 235.966C223.494 235.882 223.561 235.82 223.645 235.779C223.73 235.737 223.827 235.716 223.938 235.716C224.01 235.716 224.079 235.722 224.143 235.733C224.207 235.744 224.255 235.753 224.286 235.762L224.203 236.143C224.184 236.137 224.161 236.131 224.133 236.127C224.106 236.123 224.08 236.121 224.056 236.121C223.995 236.121 223.953 236.134 223.931 236.161C223.908 236.188 223.896 236.225 223.896 236.272V238H223.376ZM225.104 238V235.818H226.593V236.246H225.631V236.694H226.498V237.123H225.631V238H225.104ZM227.502 238.031C227.331 238.031 227.183 237.996 227.059 237.925C226.936 237.854 226.842 237.756 226.775 237.629C226.709 237.502 226.676 237.355 226.676 237.187C226.676 237.019 226.709 236.871 226.775 236.745C226.842 236.618 226.936 236.519 227.059 236.449C227.183 236.378 227.331 236.342 227.502 236.342C227.674 236.342 227.822 236.378 227.945 236.449C228.068 236.519 228.163 236.618 228.229 236.745C228.296 236.871 228.329 237.019 228.329 237.187C228.329 237.355 228.296 237.502 228.229 237.629C228.163 237.756 228.068 237.854 227.945 237.925C227.822 237.996 227.674 238.031 227.502 238.031ZM227.506 237.638C227.568 237.638 227.621 237.619 227.664 237.58C227.708 237.542 227.741 237.489 227.763 237.42C227.787 237.352 227.799 237.273 227.799 237.184C227.799 237.093 227.787 237.013 227.763 236.945C227.741 236.877 227.708 236.824 227.664 236.786C227.621 236.747 227.568 236.728 227.506 236.728C227.441 236.728 227.386 236.747 227.342 236.786C227.297 236.824 227.264 236.877 227.24 236.945C227.218 237.013 227.206 237.093 227.206 237.184C227.206 237.273 227.218 237.352 227.24 237.42C227.264 237.489 227.297 237.542 227.342 237.58C227.386 237.619 227.441 237.638 227.506 237.638ZM228.596 238V236.364H229.102V236.662H229.119C229.149 236.554 229.198 236.474 229.265 236.421C229.332 236.368 229.411 236.341 229.5 236.341C229.525 236.341 229.549 236.343 229.575 236.347C229.601 236.349 229.624 236.354 229.646 236.36V236.813C229.622 236.805 229.589 236.798 229.548 236.793C229.509 236.788 229.473 236.786 229.442 236.786C229.38 236.786 229.324 236.799 229.275 236.827C229.226 236.854 229.187 236.892 229.158 236.941C229.131 236.989 229.117 237.046 229.117 237.112V238H228.596ZM230.539 238.031C230.367 238.031 230.22 237.997 230.095 237.93C229.972 237.862 229.877 237.765 229.81 237.639C229.744 237.512 229.711 237.362 229.711 237.188C229.711 237.019 229.744 236.871 229.811 236.745C229.878 236.618 229.972 236.519 230.093 236.449C230.215 236.378 230.358 236.342 230.523 236.342C230.639 236.342 230.746 236.36 230.842 236.397C230.939 236.433 231.022 236.487 231.093 236.558C231.163 236.629 231.218 236.716 231.257 236.821C231.296 236.924 231.315 237.043 231.315 237.178V237.308H229.893V237.005H230.831C230.83 236.95 230.817 236.9 230.791 236.857C230.766 236.814 230.73 236.78 230.686 236.756C230.642 236.731 230.591 236.718 230.533 236.718C230.475 236.718 230.423 236.732 230.377 236.758C230.331 236.783 230.294 236.819 230.267 236.863C230.24 236.907 230.226 236.957 230.224 237.013V237.321C230.224 237.388 230.237 237.447 230.264 237.497C230.29 237.547 230.327 237.586 230.376 237.613C230.424 237.641 230.481 237.655 230.548 237.655C230.594 237.655 230.636 237.648 230.674 237.636C230.712 237.623 230.744 237.604 230.771 237.579C230.798 237.554 230.818 237.524 230.832 237.488L231.31 237.501C231.29 237.609 231.246 237.702 231.179 237.782C231.112 237.86 231.024 237.922 230.916 237.966C230.807 238.009 230.681 238.031 230.539 238.031ZM231.581 238V236.364H232.102V238H231.581ZM231.842 236.173C231.769 236.173 231.706 236.149 231.654 236.1C231.601 236.051 231.575 235.993 231.575 235.924C231.575 235.855 231.601 235.797 231.654 235.749C231.706 235.7 231.769 235.675 231.842 235.675C231.916 235.675 231.979 235.7 232.031 235.749C232.083 235.797 232.11 235.855 232.11 235.924C232.11 235.993 232.083 236.051 232.031 236.1C231.979 236.149 231.916 236.173 231.842 236.173ZM233.197 238.648C233.041 238.648 232.908 238.626 232.797 238.583C232.686 238.539 232.599 238.48 232.536 238.405C232.473 238.33 232.435 238.244 232.422 238.149L232.915 238.121C232.925 238.155 232.942 238.184 232.967 238.209C232.992 238.234 233.025 238.253 233.066 238.266C233.107 238.28 233.155 238.287 233.21 238.287C233.298 238.287 233.37 238.265 233.427 238.223C233.484 238.181 233.513 238.107 233.513 238.002V237.714H233.495C233.474 237.765 233.443 237.81 233.401 237.85C233.359 237.89 233.307 237.921 233.245 237.944C233.183 237.966 233.112 237.978 233.032 237.978C232.912 237.978 232.803 237.95 232.703 237.895C232.605 237.838 232.525 237.752 232.466 237.635C232.407 237.517 232.377 237.365 232.377 237.18C232.377 236.989 232.408 236.831 232.469 236.708C232.53 236.583 232.61 236.491 232.709 236.432C232.808 236.372 232.915 236.342 233.029 236.342C233.115 236.342 233.189 236.357 233.25 236.387C233.312 236.416 233.362 236.454 233.402 236.5C233.442 236.546 233.472 236.594 233.493 236.644H233.508V236.364H234.027V238.006C234.027 238.145 233.992 238.262 233.922 238.357C233.853 238.452 233.755 238.524 233.63 238.573C233.505 238.623 233.361 238.648 233.197 238.648ZM233.213 237.598C233.276 237.598 233.33 237.582 233.375 237.548C233.419 237.515 233.454 237.467 233.478 237.404C233.502 237.342 233.514 237.267 233.514 237.18C233.514 237.091 233.502 237.015 233.478 236.951C233.454 236.886 233.42 236.836 233.375 236.801C233.33 236.767 233.276 236.749 233.213 236.749C233.148 236.749 233.093 236.767 233.049 236.803C233.004 236.838 232.97 236.888 232.946 236.953C232.924 237.017 232.912 237.092 232.912 237.18C232.912 237.267 232.924 237.342 232.947 237.404C232.971 237.467 233.005 237.515 233.049 237.548C233.093 237.582 233.148 237.598 233.213 237.598ZM234.88 237.067V238H234.359V236.364H234.854V236.664H234.872C234.908 236.564 234.97 236.485 235.058 236.429C235.145 236.371 235.249 236.342 235.37 236.342C235.485 236.342 235.585 236.368 235.669 236.42C235.754 236.471 235.82 236.543 235.867 236.635C235.915 236.727 235.938 236.834 235.937 236.957V238H235.417V237.059C235.417 236.968 235.394 236.897 235.347 236.846C235.301 236.795 235.237 236.77 235.154 236.77C235.1 236.77 235.051 236.782 235.01 236.806C234.968 236.829 234.936 236.863 234.914 236.907C234.892 236.951 234.88 237.004 234.88 237.067ZM237.376 238H236.81L237.546 235.818H238.248L238.984 238H238.417L237.905 236.368H237.888L237.376 238ZM237.301 237.141H238.486V237.542H237.301V237.141ZM240.108 236.364V236.747H239.055V236.364H240.108ZM239.275 238V236.281C239.275 236.154 239.299 236.049 239.346 235.966C239.394 235.882 239.46 235.82 239.544 235.779C239.629 235.737 239.727 235.716 239.837 235.716C239.91 235.716 239.978 235.722 240.042 235.733C240.107 235.744 240.155 235.753 240.186 235.762L240.103 236.143C240.084 236.137 240.06 236.131 240.032 236.127C240.005 236.123 239.98 236.121 239.956 236.121C239.895 236.121 239.853 236.134 239.83 236.161C239.807 236.188 239.796 236.225 239.796 236.272V238H239.275ZM241.289 236.364V236.747H240.236V236.364H241.289ZM240.456 238V236.281C240.456 236.154 240.479 236.049 240.527 235.966C240.575 235.882 240.641 235.82 240.725 235.779C240.81 235.737 240.907 235.716 241.018 235.716C241.091 235.716 241.159 235.722 241.223 235.733C241.287 235.744 241.335 235.753 241.366 235.762L241.283 236.143C241.264 236.137 241.241 236.131 241.213 236.127C241.186 236.123 241.161 236.121 241.136 236.121C241.075 236.121 241.033 236.134 241.011 236.161C240.988 236.188 240.977 236.225 240.977 236.272V238H240.456ZM241.936 238.028C241.832 238.028 241.739 238.01 241.658 237.975C241.578 237.94 241.514 237.887 241.467 237.816C241.421 237.744 241.398 237.654 241.398 237.546C241.398 237.455 241.414 237.379 241.446 237.316C241.478 237.254 241.522 237.203 241.578 237.164C241.634 237.125 241.699 237.095 241.772 237.075C241.845 237.055 241.923 237.041 242.006 237.034C242.1 237.025 242.174 237.016 242.231 237.007C242.288 236.997 242.329 236.983 242.355 236.966C242.381 236.947 242.394 236.921 242.394 236.888V236.882C242.394 236.828 242.375 236.786 242.338 236.756C242.3 236.726 242.249 236.711 242.185 236.711C242.117 236.711 242.061 236.726 242.019 236.756C241.977 236.786 241.951 236.827 241.939 236.879L241.459 236.862C241.473 236.763 241.51 236.674 241.569 236.596C241.628 236.517 241.71 236.455 241.814 236.411C241.918 236.365 242.043 236.342 242.19 236.342C242.294 236.342 242.39 236.355 242.478 236.38C242.566 236.404 242.643 236.439 242.709 236.486C242.774 236.532 242.824 236.589 242.86 236.657C242.896 236.724 242.914 236.801 242.914 236.888V238H242.424V237.772H242.411C242.382 237.827 242.345 237.874 242.299 237.913C242.255 237.951 242.202 237.98 242.141 237.999C242.08 238.018 242.012 238.028 241.936 238.028ZM242.097 237.687C242.153 237.687 242.204 237.675 242.248 237.653C242.294 237.63 242.33 237.599 242.357 237.559C242.384 237.518 242.397 237.472 242.397 237.418V237.263C242.383 237.271 242.364 237.278 242.343 237.284C242.323 237.29 242.3 237.297 242.275 237.302C242.25 237.308 242.225 237.313 242.198 237.317C242.172 237.321 242.147 237.325 242.123 237.329C242.074 237.337 242.032 237.349 241.997 237.365C241.963 237.381 241.937 237.403 241.918 237.429C241.9 237.455 241.891 237.485 241.891 237.521C241.891 237.575 241.911 237.616 241.949 237.644C241.988 237.673 242.037 237.687 242.097 237.687ZM243.233 238V236.364H243.754V238H243.233ZM243.494 236.173C243.421 236.173 243.358 236.149 243.305 236.1C243.253 236.051 243.226 235.993 243.226 235.924C243.226 235.855 243.253 235.797 243.305 235.749C243.358 235.7 243.421 235.675 243.494 235.675C243.568 235.675 243.63 235.7 243.682 235.749C243.735 235.797 243.761 235.855 243.761 235.924C243.761 235.993 243.735 236.051 243.682 236.1C243.63 236.149 243.568 236.173 243.494 236.173ZM244.085 238V236.364H244.591V236.662H244.608C244.638 236.554 244.687 236.474 244.754 236.421C244.822 236.368 244.9 236.341 244.99 236.341C245.014 236.341 245.039 236.343 245.064 236.347C245.09 236.349 245.114 236.354 245.136 236.36V236.813C245.111 236.805 245.078 236.798 245.038 236.793C244.998 236.788 244.962 236.786 244.931 236.786C244.869 236.786 244.814 236.799 244.764 236.827C244.715 236.854 244.676 236.892 244.648 236.941C244.62 236.989 244.606 237.046 244.606 237.112V238H244.085ZM246.777 236.863L246.298 236.876C246.293 236.842 246.28 236.812 246.258 236.786C246.236 236.759 246.207 236.738 246.171 236.723C246.137 236.707 246.096 236.699 246.05 236.699C245.99 236.699 245.938 236.711 245.895 236.735C245.854 236.76 245.833 236.792 245.834 236.833C245.833 236.865 245.846 236.893 245.872 236.917C245.899 236.94 245.947 236.959 246.016 236.973L246.331 237.033C246.495 237.064 246.616 237.116 246.696 237.188C246.776 237.261 246.816 237.357 246.817 237.476C246.816 237.588 246.783 237.686 246.717 237.769C246.652 237.852 246.562 237.917 246.448 237.963C246.335 238.008 246.205 238.031 246.058 238.031C245.825 238.031 245.641 237.983 245.506 237.887C245.371 237.79 245.295 237.661 245.275 237.499L245.79 237.487C245.801 237.546 245.831 237.592 245.878 237.623C245.926 237.654 245.987 237.67 246.061 237.67C246.127 237.67 246.182 237.657 246.224 237.632C246.266 237.608 246.287 237.575 246.288 237.533C246.287 237.496 246.27 237.467 246.239 237.445C246.207 237.422 246.157 237.404 246.088 237.392L245.803 237.337C245.639 237.308 245.517 237.252 245.436 237.172C245.356 237.091 245.316 236.988 245.317 236.863C245.316 236.754 245.345 236.661 245.404 236.583C245.463 236.505 245.547 236.445 245.656 236.404C245.764 236.363 245.893 236.342 246.04 236.342C246.262 236.342 246.437 236.389 246.565 236.482C246.692 236.574 246.763 236.701 246.777 236.863Z" fill="white"/>
<path d="M239 146L206.75 178L196 167.333" stroke="#0C549F" stroke-width="8" stroke-linecap="round" stroke-linejoin="round"/>
<defs>
<filter id="filter0_d_810_209" x="168" y="211" width="130.19" height="104" filterUnits="userSpaceOnUse" color-interpolation-filters="sRGB">
<feFlood flood-opacity="0" result="BackgroundImageFix"/>
<feColorMatrix in="SourceAlpha" type="matrix" values="0 0 0 0 0 0 0 0 0 0 0 0 0 0 0 0 0 0 127 0" result="hardAlpha"/>
<feOffset dx="15" dy="4"/>
<feGaussianBlur stdDeviation="10.5"/>
<feComposite in2="hardAlpha" operator="out"/>
<feColorMatrix type="matrix" values="0 0 0 0 0 0 0 0 0 0 0 0 0 0 0 0 0 0 0.05 0"/>
<feBlend mode="normal" in2="BackgroundImageFix" result="effect1_dropShadow_810_209"/>
<feBlend mode="normal" in="SourceGraphic" in2="effect1_dropShadow_810_209" result="shape"/>
</filter>
</defs>
</svg>
