<svg width="283" height="308" viewBox="0 0 283 308" fill="none" xmlns="http://www.w3.org/2000/svg">
<rect x="2.5" y="2.5" width="278" height="303" rx="15.5" fill="white" stroke="#049B63" stroke-width="5"/>
<path d="M22 80H43" stroke="#049B63" stroke-linecap="round" stroke-linejoin="round"/>
<path d="M50 80H97" stroke="#049B63" stroke-linecap="round" stroke-linejoin="round"/>
<path d="M176 19H238" stroke="#049B63" stroke-linecap="round" stroke-linejoin="round"/>
<path d="M22 89H43" stroke="#049B63" stroke-linecap="round" stroke-linejoin="round"/>
<path d="M50 89H97" stroke="#049B63" stroke-linecap="round" stroke-linejoin="round"/>
<path d="M176 25H238" stroke="#049B63" stroke-linecap="round" stroke-linejoin="round"/>
<path d="M24 153H59" stroke="#049B63" stroke-width="2" stroke-linecap="round" stroke-linejoin="round"/>
<path d="M73 153H207" stroke="#049B63" stroke-width="2" stroke-linecap="round" stroke-linejoin="round"/>
<path d="M84 127H198" stroke="#049B63" stroke-linecap="round" stroke-linejoin="round"/>
<path d="M24 171H59" stroke="#049B63" stroke-width="2" stroke-linecap="round" stroke-linejoin="round"/>
<path d="M24 187H59" stroke="#049B63" stroke-width="2" stroke-linecap="round" stroke-linejoin="round"/>
<path d="M73 187H207.5" stroke="#049B63" stroke-width="2" stroke-linecap="round" stroke-linejoin="round"/>
<path d="M73 171H207" stroke="#049B63" stroke-width="2" stroke-linecap="round" stroke-linejoin="round"/>
<path d="M20 226H263.5" stroke="#049B63" stroke-linecap="round" stroke-linejoin="round"/>
<path d="M20 234H263.5" stroke="#049B63" stroke-linecap="round" stroke-linejoin="round"/>
<path d="M20 242H263.5" stroke="#049B63" stroke-linecap="round" stroke-linejoin="round"/>
<path d="M73 208H210.5" stroke="#049B63" stroke-width="2" stroke-linecap="round" stroke-linejoin="round"/>
<rect x="199" y="42" width="55" height="66" rx="6" stroke="#049B63" stroke-width="2"/>
<rect x="191.5" y="252.5" width="74" height="42" rx="3.5" fill="#007449" stroke="#049B63"/>
<path d="M203.125 282V264.545H210.659C211.955 264.545 213.088 264.801 214.06 265.312C215.031 265.824 215.787 266.543 216.327 267.469C216.866 268.395 217.136 269.477 217.136 270.716C217.136 271.966 216.858 273.048 216.301 273.963C215.75 274.878 214.974 275.582 213.974 276.077C212.98 276.571 211.818 276.818 210.489 276.818H205.989V273.136H209.534C210.091 273.136 210.565 273.04 210.957 272.847C211.355 272.648 211.659 272.366 211.869 272.003C212.085 271.639 212.193 271.21 212.193 270.716C212.193 270.216 212.085 269.79 211.869 269.438C211.659 269.08 211.355 268.807 210.957 268.619C210.565 268.426 210.091 268.33 209.534 268.33H207.864V282H203.125ZM235.17 271.091H230.364C230.33 270.693 230.239 270.332 230.091 270.009C229.949 269.685 229.75 269.406 229.494 269.173C229.244 268.935 228.94 268.753 228.582 268.628C228.224 268.497 227.818 268.432 227.364 268.432C226.568 268.432 225.895 268.625 225.344 269.011C224.798 269.398 224.384 269.952 224.099 270.673C223.821 271.395 223.682 272.261 223.682 273.273C223.682 274.341 223.824 275.236 224.108 275.957C224.398 276.673 224.815 277.213 225.361 277.577C225.906 277.935 226.563 278.114 227.33 278.114C227.767 278.114 228.159 278.06 228.506 277.952C228.852 277.838 229.153 277.676 229.409 277.466C229.665 277.256 229.872 277.003 230.031 276.707C230.196 276.406 230.307 276.068 230.364 275.693L235.17 275.727C235.114 276.466 234.906 277.219 234.548 277.986C234.19 278.747 233.682 279.452 233.023 280.099C232.369 280.741 231.56 281.259 230.594 281.651C229.628 282.043 228.506 282.239 227.227 282.239C225.625 282.239 224.188 281.895 222.915 281.207C221.648 280.52 220.645 279.509 219.906 278.173C219.173 276.838 218.807 275.205 218.807 273.273C218.807 271.33 219.182 269.693 219.932 268.364C220.682 267.028 221.693 266.02 222.966 265.338C224.239 264.651 225.659 264.307 227.227 264.307C228.33 264.307 229.344 264.457 230.27 264.759C231.196 265.06 232.009 265.5 232.707 266.08C233.406 266.653 233.969 267.361 234.395 268.202C234.821 269.043 235.08 270.006 235.17 271.091ZM253.616 271.091H248.809C248.775 270.693 248.684 270.332 248.536 270.009C248.394 269.685 248.195 269.406 247.94 269.173C247.69 268.935 247.386 268.753 247.028 268.628C246.67 268.497 246.263 268.432 245.809 268.432C245.013 268.432 244.34 268.625 243.789 269.011C243.244 269.398 242.829 269.952 242.545 270.673C242.266 271.395 242.127 272.261 242.127 273.273C242.127 274.341 242.269 275.236 242.553 275.957C242.843 276.673 243.261 277.213 243.806 277.577C244.352 277.935 245.008 278.114 245.775 278.114C246.212 278.114 246.604 278.06 246.951 277.952C247.298 277.838 247.599 277.676 247.854 277.466C248.11 277.256 248.317 277.003 248.477 276.707C248.641 276.406 248.752 276.068 248.809 275.693L253.616 275.727C253.559 276.466 253.352 277.219 252.994 277.986C252.636 278.747 252.127 279.452 251.468 280.099C250.815 280.741 250.005 281.259 249.039 281.651C248.073 282.043 246.951 282.239 245.673 282.239C244.07 282.239 242.633 281.895 241.36 281.207C240.093 280.52 239.09 279.509 238.352 278.173C237.619 276.838 237.252 275.205 237.252 273.273C237.252 271.33 237.627 269.693 238.377 268.364C239.127 267.028 240.138 266.02 241.411 265.338C242.684 264.651 244.104 264.307 245.673 264.307C246.775 264.307 247.789 264.457 248.715 264.759C249.641 265.06 250.454 265.5 251.153 266.08C251.852 266.653 252.414 267.361 252.84 268.202C253.266 269.043 253.525 270.006 253.616 271.091Z" fill="white"/>
<path d="M71.5 38.7632V55.7368C71.5 56.3371 71.2629 56.9127 70.841 57.3371C70.419 57.7616 69.8467 58 69.25 58H67C66.4033 58 65.831 57.7616 65.409 57.3371C64.9871 56.9127 64.75 56.3371 64.75 55.7368V53.4737H33.25V55.7368C33.25 56.3371 33.0129 56.9127 32.591 57.3371C32.169 57.7616 31.5967 58 31 58H28.75C28.1533 58 27.581 57.7616 27.159 57.3371C26.7371 56.9127 26.5 56.3371 26.5 55.7368V38.7632L23.7033 38.0616C23.2167 37.939 22.7848 37.6564 22.4762 37.2586C22.1676 36.8609 22 36.3708 22 35.8663V34.2368C22 33.9367 22.1185 33.6489 22.3295 33.4367C22.5405 33.2245 22.8266 33.1053 23.125 33.1053H27.4653L32.08 22.2693C32.4271 21.4549 33.0042 20.7609 33.7397 20.2733C34.4752 19.7857 35.3368 19.526 36.2177 19.5263H40V15H46.75V19.5263H51.25V15H58V19.5263H61.7822C62.6628 19.5264 63.5239 19.7863 64.259 20.2739C64.9941 20.7615 65.5708 21.4552 65.9177 22.2693L70.5347 33.1053H74.875C75.1734 33.1053 75.4595 33.2245 75.6705 33.4367C75.8815 33.6489 76 33.9367 76 34.2368V35.8663C76 36.3708 75.8324 36.8609 75.5238 37.2586C75.2152 37.6564 74.7833 37.939 74.2967 38.0616L71.5 38.7632ZM31 42.1579V46.6842C31 47.2844 31.2371 47.8601 31.659 48.2845C32.081 48.7089 32.6533 48.9474 33.25 48.9474H40.5513C40.7455 48.9471 40.9364 48.8961 41.1053 48.7996C41.2742 48.703 41.4154 48.5641 41.5151 48.3964C41.6147 48.2287 41.6695 48.0379 41.6741 47.8425C41.6787 47.6472 41.6329 47.454 41.5413 47.2817C39.73 43.8643 36.2155 42.1579 31 42.1579ZM67 42.1579C61.7868 42.1579 58.2723 43.8666 56.4565 47.2817C56.3647 47.4541 56.3189 47.6475 56.3236 47.8431C56.3283 48.0386 56.3833 48.2296 56.4833 48.3974C56.5832 48.5652 56.7247 48.704 56.8939 48.8004C57.0631 48.8968 57.2543 48.9474 57.4487 48.9474H64.75C65.3467 48.9474 65.919 48.7089 66.341 48.2845C66.7629 47.8601 67 47.2844 67 46.6842V42.1579ZM35.5 24.0526L32.2352 32.2656C32.0989 32.6089 32.0482 32.9805 32.0877 33.348C32.1271 33.7155 32.2554 34.0677 32.4614 34.3739C32.6674 34.68 32.9448 34.9307 33.2694 35.104C33.5939 35.2774 33.9558 35.3682 34.3233 35.3684H63.6768C64.0442 35.3682 64.4061 35.2774 64.7306 35.104C65.0552 34.9307 65.3326 34.68 65.5386 34.3739C65.7446 34.0677 65.8729 33.7155 65.9123 33.348C65.9518 32.9805 65.9011 32.6089 65.7648 32.2656L62.5 24.0526H35.5Z" fill="url(#paint0_linear_519_97)"/>
<path d="M258.5 21.2895V27.2105C258.5 27.4199 258.421 27.6207 258.28 27.7688C258.14 27.9168 257.949 28 257.75 28H257C256.801 28 256.61 27.9168 256.47 27.7688C256.329 27.6207 256.25 27.4199 256.25 27.2105V26.4211H245.75V27.2105C245.75 27.4199 245.671 27.6207 245.53 27.7688C245.39 27.9168 245.199 28 245 28H244.25C244.051 28 243.86 27.9168 243.72 27.7688C243.579 27.6207 243.5 27.4199 243.5 27.2105V21.2895L242.568 21.0447C242.406 21.002 242.262 20.9034 242.159 20.7646C242.056 20.6259 242 20.4549 242 20.2789V19.7105C242 19.6058 242.04 19.5054 242.11 19.4314C242.18 19.3574 242.276 19.3158 242.375 19.3158H243.822L245.36 15.5358C245.476 15.2517 245.668 15.0096 245.913 14.8395C246.158 14.6694 246.446 14.5788 246.739 14.5789H248V13H250.25V14.5789H251.75V13H254V14.5789H255.261C255.554 14.579 255.841 14.6697 256.086 14.8397C256.331 15.0098 256.524 15.2518 256.639 15.5358L258.178 19.3158H259.625C259.724 19.3158 259.82 19.3574 259.89 19.4314C259.96 19.5054 260 19.6058 260 19.7105V20.2789C260 20.4549 259.944 20.6259 259.841 20.7646C259.738 20.9034 259.594 21.002 259.432 21.0447L258.5 21.2895ZM245 22.4737V24.0526C245 24.262 245.079 24.4628 245.22 24.6109C245.36 24.7589 245.551 24.8421 245.75 24.8421H248.184C248.249 24.842 248.312 24.8242 248.368 24.7906C248.425 24.7569 248.472 24.7084 248.505 24.6499C248.538 24.5914 248.557 24.5248 248.558 24.4567C248.56 24.3885 248.544 24.3211 248.514 24.2611C247.91 23.0689 246.739 22.4737 245 22.4737ZM257 22.4737C255.262 22.4737 254.091 23.0697 253.486 24.2611C253.455 24.3212 253.44 24.3887 253.441 24.4569C253.443 24.5251 253.461 24.5917 253.494 24.6503C253.528 24.7088 253.575 24.7572 253.631 24.7908C253.688 24.8245 253.751 24.8421 253.816 24.8421H256.25C256.449 24.8421 256.64 24.7589 256.78 24.6109C256.921 24.4628 257 24.262 257 24.0526V22.4737ZM246.5 16.1579L245.412 19.0229C245.366 19.1426 245.349 19.2723 245.363 19.4005C245.376 19.5287 245.418 19.6515 245.487 19.7583C245.556 19.8651 245.648 19.9526 245.756 20.013C245.865 20.0735 245.985 20.1052 246.108 20.1053H255.892C256.015 20.1052 256.135 20.0735 256.244 20.013C256.352 19.9526 256.444 19.8651 256.513 19.7583C256.582 19.6515 256.624 19.5287 256.637 19.4005C256.651 19.2723 256.634 19.1426 256.588 19.0229L255.5 16.1579H246.5Z" fill="url(#paint1_linear_519_97)"/>
<defs>
<linearGradient id="paint0_linear_519_97" x1="76" y1="36.4941" x2="21.9993" y2="34.7556" gradientUnits="userSpaceOnUse">
<stop stop-color="#008755"/>
<stop offset="1" stop-color="#09B879"/>
</linearGradient>
<linearGradient id="paint1_linear_519_97" x1="260" y1="20.498" x2="241.998" y2="19.9441" gradientUnits="userSpaceOnUse">
<stop stop-color="#008755"/>
<stop offset="1" stop-color="#09B879"/>
</linearGradient>
</defs>
</svg>
