<svg width="100" height="100" viewBox="0 0 100 100" fill="none" xmlns="http://www.w3.org/2000/svg">
<path d="M84.6075 24.1082C88.3502 51.5834 64.4025 75.9648 51.9609 84.7211C19.66 58.7179 17.0767 33.4779 19.8227 24.1082C35.2816 25.9072 47.6893 16.6126 51.9609 11.7404C63.5143 23.5972 78.5393 24.926 84.6075 24.1082Z" fill="url(#paint0_linear_600_16)" stroke="url(#paint1_linear_600_16)"/>
<path d="M75.8286 30.8206C78.5636 50.6504 61.0634 68.2475 51.9714 74.5672C28.3669 55.7997 26.4792 37.583 28.4858 30.8206C39.7827 32.1189 48.8499 25.4106 51.9714 21.8942C60.4143 30.4517 71.3941 31.4107 75.8286 30.8206Z" fill="white" stroke="url(#paint2_linear_600_16)"/>
<path d="M45.8125 58.7019C45.2453 58.7019 44.7596 58.5005 44.3553 58.0977C43.9511 57.6949 43.7493 57.2113 43.75 56.6469V46.3722C43.75 45.8071 43.9521 45.3231 44.3564 44.9204C44.7606 44.5176 45.246 44.3166 45.8125 44.3172H46.8438V42.2623C46.8438 40.841 47.3467 39.6292 48.3525 38.6271C49.3583 37.625 50.5741 37.1243 52 37.1249C53.4266 37.1249 54.6428 37.626 55.6486 38.6281C56.6544 39.6303 57.1569 40.8416 57.1562 42.2623V44.3172H58.1875C58.7547 44.3172 59.2404 44.5186 59.6447 44.9214C60.0489 45.3242 60.2507 45.8078 60.25 46.3722V56.6469C60.25 57.212 60.0479 57.696 59.6436 58.0987C59.2394 58.5015 58.754 58.7025 58.1875 58.7019H45.8125ZM48.9063 44.3172H55.0937V42.2623C55.0937 41.4061 54.793 40.6783 54.1914 40.0789C53.5898 39.4796 52.8594 39.1799 52 39.1799C51.1406 39.1799 50.4102 39.4796 49.8086 40.0789C49.207 40.6783 48.9063 41.4061 48.9063 42.2623V44.3172Z" fill="#0C296C"/>
<defs>
<linearGradient id="paint0_linear_600_16" x1="52" y1="11.7404" x2="52" y2="84.7211" gradientUnits="userSpaceOnUse">
<stop stop-color="#0C1D5D"/>
<stop offset="1" stop-color="#0C4A93"/>
</linearGradient>
<linearGradient id="paint1_linear_600_16" x1="52" y1="11.7404" x2="52" y2="84.7211" gradientUnits="userSpaceOnUse">
<stop stop-color="#78F3FE"/>
<stop offset="0.932292" stop-color="#1B639A"/>
<stop offset="1" stop-color="white" stop-opacity="0"/>
</linearGradient>
<linearGradient id="paint2_linear_600_16" x1="52" y1="21.8942" x2="52" y2="74.5672" gradientUnits="userSpaceOnUse">
<stop stop-color="white"/>
<stop offset="1" stop-color="white" stop-opacity="0"/>
</linearGradient>
</defs>
</svg>
