<svg width="1480" height="225" viewBox="0 0 1480 225" fill="none" xmlns="http://www.w3.org/2000/svg">
<path d="M51.5682 175L0.0909092 0.45454H52.9318L76.7955 107.841H78.1591L106.455 0.45454H148.045L176.341 108.182H177.705L201.568 0.45454H254.409L202.932 175H157.591L127.932 77.5H126.568L96.9091 175H51.5682ZM317.477 101.364V175H270.432V0.45454H315.773V68.9773H317.136C320.091 60.625 325.006 54.1193 331.881 49.4602C338.756 44.7443 347.023 42.3864 356.682 42.3864C365.943 42.3864 373.983 44.4886 380.801 48.6932C387.676 52.8977 392.989 58.6932 396.739 66.0795C400.545 73.4659 402.42 81.9318 402.364 91.4773V175H355.318V101.364C355.375 94.8864 353.756 89.8011 350.46 86.108C347.222 82.4148 342.591 80.5682 336.568 80.5682C332.761 80.5682 329.409 81.4205 326.511 83.125C323.67 84.7727 321.455 87.1591 319.864 90.2841C318.33 93.3523 317.534 97.0455 317.477 101.364ZM449.537 224.091C444.139 224.091 438.997 223.665 434.111 222.812C429.224 222.017 424.935 220.909 421.241 219.489L431.469 186.08C435.332 187.443 438.855 188.324 442.037 188.722C445.276 189.119 448.031 188.892 450.304 188.04C452.634 187.188 454.31 185.568 455.332 183.182L456.355 180.795L410.332 44.0909H459.423L480.56 134.773H481.923L503.401 44.0909H552.832L505.105 185.909C502.719 193.125 499.253 199.602 494.707 205.341C490.219 211.136 484.31 215.71 476.98 219.062C469.651 222.415 460.503 224.091 449.537 224.091ZM613.344 175V0.45454H688.685C701.639 0.45454 712.974 3.01136 722.69 8.125C732.406 13.2386 739.963 20.4261 745.361 29.6875C750.759 38.9489 753.457 49.7727 753.457 62.1591C753.457 74.6591 750.673 85.483 745.105 94.6307C739.594 103.778 731.838 110.824 721.838 115.767C711.895 120.71 700.276 123.182 686.98 123.182H641.98V86.3636H677.435C683.003 86.3636 687.747 85.3977 691.668 83.4659C695.645 81.4773 698.685 78.6648 700.787 75.0284C702.946 71.392 704.026 67.1023 704.026 62.1591C704.026 57.1591 702.946 52.8977 700.787 49.375C698.685 45.7955 695.645 43.0682 691.668 41.1932C687.747 39.2614 683.003 38.2954 677.435 38.2954H660.73V175H613.344ZM771.526 175V44.0909H817.207V68.9773H818.571C820.957 59.7727 824.736 53.0398 829.906 48.7784C835.134 44.517 841.241 42.3864 848.23 42.3864C850.276 42.3864 852.293 42.5568 854.281 42.8977C856.327 43.1818 858.287 43.608 860.162 44.1761V84.3182C857.832 83.5227 854.963 82.9261 851.554 82.5284C848.145 82.1307 845.219 81.9318 842.776 81.9318C838.173 81.9318 834.026 82.983 830.332 85.0852C826.696 87.1307 823.827 90.0284 821.724 93.7784C819.622 97.4716 818.571 101.818 818.571 106.818V175H771.526ZM931.156 177.386C916.952 177.386 904.793 174.574 894.679 168.949C884.565 163.267 876.81 155.369 871.412 145.256C866.014 135.085 863.315 123.295 863.315 109.886C863.315 96.4773 866.014 84.7159 871.412 74.6023C876.81 64.4318 884.565 56.5341 894.679 50.9091C904.793 45.2273 916.952 42.3864 931.156 42.3864C945.361 42.3864 957.52 45.2273 967.634 50.9091C977.747 56.5341 985.503 64.4318 990.901 74.6023C996.298 84.7159 998.997 96.4773 998.997 109.886C998.997 123.295 996.298 135.085 990.901 145.256C985.503 155.369 977.747 163.267 967.634 168.949C957.52 174.574 945.361 177.386 931.156 177.386ZM931.497 142.614C935.474 142.614 938.912 141.278 941.81 138.608C944.707 135.937 946.952 132.131 948.543 127.188C950.134 122.244 950.929 116.364 950.929 109.545C950.929 102.67 950.134 96.7898 948.543 91.9034C946.952 86.9602 944.707 83.1534 941.81 80.483C938.912 77.8125 935.474 76.4773 931.497 76.4773C927.293 76.4773 923.685 77.8125 920.673 80.483C917.662 83.1534 915.361 86.9602 913.77 91.9034C912.179 96.7898 911.384 102.67 911.384 109.545C911.384 116.364 912.179 122.244 913.77 127.188C915.361 132.131 917.662 135.937 920.673 138.608C923.685 141.278 927.293 142.614 931.497 142.614ZM1018.09 175V44.0909H1062.75V68.9773H1064.11C1066.84 60.7955 1071.5 54.3182 1078.09 49.5454C1084.68 44.7727 1092.52 42.3864 1101.61 42.3864C1110.82 42.3864 1118.74 44.8295 1125.39 49.7159C1132.04 54.5455 1136.04 60.9659 1137.41 68.9773H1138.77C1140.99 60.9659 1145.7 54.5455 1152.92 49.7159C1160.13 44.8295 1168.6 42.3864 1178.32 42.3864C1190.87 42.3864 1201.04 46.4205 1208.83 54.4886C1216.67 62.5568 1220.59 73.2955 1220.59 86.7045V175H1173.54V98.6364C1173.54 92.8977 1172.09 88.4091 1169.2 85.1705C1166.3 81.875 1162.41 80.2273 1157.52 80.2273C1152.69 80.2273 1148.86 81.875 1146.01 85.1705C1143.23 88.4091 1141.84 92.8977 1141.84 98.6364V175H1096.84V98.6364C1096.84 92.8977 1095.39 88.4091 1092.49 85.1705C1089.59 81.875 1085.7 80.2273 1080.82 80.2273C1077.58 80.2273 1074.79 80.9659 1072.46 82.4432C1070.13 83.9205 1068.32 86.0511 1067.01 88.8352C1065.76 91.5625 1065.13 94.8295 1065.13 98.6364V175H1018.09ZM1243.79 224.091V44.0909H1290.5V66.9318H1291.52C1293.22 62.5 1295.72 58.4375 1299.02 54.7443C1302.31 50.9943 1306.4 48.0114 1311.29 45.7954C1316.18 43.5227 1321.86 42.3864 1328.34 42.3864C1336.97 42.3864 1345.18 44.6875 1352.97 49.2898C1360.81 53.892 1367.17 61.1364 1372.06 71.0227C1377 80.9091 1379.47 93.75 1379.47 109.545C1379.47 124.659 1377.12 137.187 1372.4 147.131C1367.74 157.074 1361.49 164.489 1353.65 169.375C1345.87 174.261 1337.31 176.705 1328 176.705C1321.86 176.705 1316.38 175.71 1311.55 173.722C1306.77 171.676 1302.68 168.92 1299.27 165.455C1295.92 161.932 1293.34 157.955 1291.52 153.523H1290.84V224.091H1243.79ZM1289.81 109.545C1289.81 115.909 1290.64 121.42 1292.29 126.08C1293.99 130.682 1296.38 134.261 1299.44 136.818C1302.57 139.318 1306.29 140.568 1310.61 140.568C1314.93 140.568 1318.59 139.347 1321.6 136.903C1324.67 134.403 1327 130.852 1328.59 126.25C1330.24 121.591 1331.06 116.023 1331.06 109.545C1331.06 103.068 1330.24 97.5284 1328.59 92.9261C1327 88.267 1324.67 84.7159 1321.6 82.2727C1318.59 79.7727 1314.93 78.5227 1310.61 78.5227C1306.29 78.5227 1302.57 79.7727 1299.44 82.2727C1296.38 84.7159 1293.99 88.267 1292.29 92.9261C1290.64 97.5284 1289.81 103.068 1289.81 109.545ZM1477.25 44.0909V78.1818H1391V44.0909H1477.25ZM1407.7 12.7273H1454.75V132.898C1454.75 134.716 1455.06 136.25 1455.69 137.5C1456.31 138.693 1457.28 139.602 1458.59 140.227C1459.89 140.795 1461.57 141.08 1463.61 141.08C1465.03 141.08 1466.68 140.909 1468.56 140.568C1470.49 140.227 1471.91 139.943 1472.82 139.716L1479.64 172.784C1477.53 173.409 1474.52 174.176 1470.6 175.085C1466.74 175.994 1462.14 176.591 1456.8 176.875C1446 177.443 1436.94 176.335 1429.61 173.551C1422.28 170.71 1416.77 166.25 1413.07 160.17C1409.38 154.091 1407.59 146.477 1407.7 137.33V12.7273Z" fill="url(#paint0_linear_592_5)"/>
<defs>
<linearGradient id="paint0_linear_592_5" x1="740.5" y1="-110.5" x2="740.5" y2="205" gradientUnits="userSpaceOnUse">
<stop stop-color="#E9E9E9"/>
<stop offset="1" stop-color="#D2D2D2" stop-opacity="0"/>
</linearGradient>
</defs>
</svg>
